<?xml version="1.0" standalone="no"?>
<!DOCTYPE svg PUBLIC "-//W3C//DTD SVG 1.1//EN" "http://www.w3.org/Graphics/SVG/1.1/DTD/svg11.dtd" >
<svg xmlns="http://www.w3.org/2000/svg">
<metadata>
<json>
<![CDATA[
{
	"fontFamily": "icomoon",
	"majorVersion": 1,
	"minorVersion": 0,
	"version": "Version 1.0",
	"fontId": "icomoon",
	"psName": "icomoon",
	"subFamily": "Regular",
	"fullName": "icomoon",
	"description": "Font generated by IcoMoon."
}
]]>
</json>
</metadata>
<defs>
<font id="icomoon" horiz-adv-x="1024">
<font-face units-per-em="1024" ascent="960" descent="-64" />
<missing-glyph horiz-adv-x="1024" />
<glyph unicode="&#x20;" horiz-adv-x="512" d="" />
<glyph unicode="&#xe900;" glyph-name="deo-remove" data-tags="Remove Round" d="M512 832c-211.2 0-384-172.8-384-384s172.8-384 384-384c211.2 0 384 172.8 384 384s-172.8 384-384 384zM680 347.2l-67.2-67.2-100.8 100.8-100.8-100.8-67.2 67.2 100.8 100.8-100.8 100.8 67.2 67.2 100.8-100.8 100.8 100.8 67.2-67.2-100.8-100.8 100.8-100.8z" />
<glyph unicode="&#xe901;" glyph-name="deo-arrow-double-right" data-tags="Right" d="M236.889 678.454c12.446 12.728 32.624 12.728 45.069 0l202.798-207.408c12.446-12.728 12.446-33.365 0-46.093l-202.798-207.405c-12.446-12.732-32.624-12.732-45.069 0-12.445 12.726-12.445 33.36 0 46.091l180.264 184.36-180.264 184.361c-12.445 12.728-12.445 33.365 0 46.093zM584.545 678.454c12.442 12.728 32.62 12.728 45.067 0l202.798-207.408c12.447-12.728 12.447-33.365 0-46.093l-202.798-207.405c-12.447-12.732-32.626-12.732-45.067 0-12.447 12.726-12.447 33.36 0 46.091l180.264 184.36-180.264 184.361c-12.447 12.728-12.447 33.365 0 46.093z" />
<glyph unicode="&#xe902;" glyph-name="deo-union" data-tags="Union" horiz-adv-x="1463" d="M831.525 908.799h97.39l-297.581-921.599h-97.39l297.582 921.599zM408.81 118.857l-408.81 293.366v71.553l408.81 293.366v-114.485l-311.051-211.081v-7.156l311.051-211.080v-114.484zM1462.857 483.776v-71.553l-408.81-293.366v114.484l311.055 211.080v7.156l-311.055 211.081v114.485l408.81-293.366z" />
<glyph unicode="&#xe903;" glyph-name="deo-arrow-up-2" data-tags="Arrow 2 - Down" d="M224.868 262.241c-21.048-21.046-21.048-55.167 0-76.218 21.047-21.046 55.172-21.046 76.218 0l-76.218 76.218zM707.412 668.568h53.895c0 29.765-24.129 53.895-53.895 53.895v-53.895zM331.431 722.463c-29.765 0-53.895-24.129-53.895-53.895s24.13-53.895 53.895-53.895v107.789zM653.517 292.956c0-29.766 24.129-53.895 53.895-53.895s53.895 24.129 53.895 53.895h-107.789zM301.086 186.023l444.434 444.435-76.218 76.218-444.435-444.436 76.218-76.218zM707.412 722.463h-375.981v-107.789h375.981v107.789zM653.517 668.568v-375.612h107.789v375.612h-107.789z" />
<glyph unicode="&#xe904;" glyph-name="deo-arrow-down-2" data-tags="Arrow 2 - Up" d="M745.332 630.643c21.046 21.048 21.046 55.172 0 76.219-21.051 21.047-55.172 21.047-76.218 0l76.218-76.219zM262.788 224.321h-53.895c0-29.766 24.13-53.895 53.895-53.895v53.895zM638.766 170.426c29.766 0 53.895 24.129 53.895 53.895 0 29.761-24.129 53.895-53.895 53.895v-107.789zM316.682 599.93c0 29.765-24.129 53.895-53.895 53.895s-53.895-24.13-53.895-53.895h107.789zM669.114 706.862l-444.436-444.432 76.219-76.218 444.435 444.431-76.218 76.219zM262.788 170.426h375.978v107.789h-375.978v-107.789zM316.682 224.321v375.61h-107.789v-375.61h107.789z" />
<glyph unicode="&#xe905;" glyph-name="deo-frame" data-tags="Frame 8" horiz-adv-x="866" d="M118.154 960c65.255 0 118.154-52.899 118.154-118.154v-787.692c0-65.255-52.899-118.154-118.154-118.154s-118.154 52.899-118.154 118.154v787.692c0 65.255 52.899 118.154 118.154 118.154zM748.308 960c65.255 0 118.154-52.899 118.154-118.154v-787.692c0-65.255-52.899-118.154-118.154-118.154s-118.154 52.899-118.154 118.154v787.692c0 65.255 52.899 118.154 118.154 118.154z" />
<glyph unicode="&#xe906;" glyph-name="deo-arrow-down-1" data-tags="Down" horiz-adv-x="983" d="M851.063 648.040c17.596-17.596 17.596-46.123 0-63.719l-327.68-327.682c-17.596-17.592-46.121-17.592-63.717 0l-327.681 327.682c-17.596 17.595-17.596 46.123 0 63.719s46.123 17.596 63.719 0l295.821-295.82 295.821 295.82c17.596 17.596 46.121 17.596 63.717 0z" />
<glyph unicode="&#xe907;" glyph-name="deo-arrow-left-1" data-tags="Left" horiz-adv-x="983" d="M687.223 92.799c-17.596-17.592-46.121-17.592-63.717 0l-327.681 327.68c-17.596 17.596-17.596 46.125 0 63.721l327.681 327.679c17.596 17.595 46.121 17.595 63.717 0s17.596-46.123 0-63.719l-295.82-295.818 295.82-295.821c17.596-17.596 17.596-46.125 0-63.721z" />
<glyph unicode="&#xe908;" glyph-name="deo-arrow-right-1" data-tags="Right" horiz-adv-x="983" d="M295.816 770.92c17.596 17.596 46.123 17.596 63.719 0l286.719-286.719c17.596-17.596 17.596-46.125 0-63.721l-286.719-286.72c-17.596-17.592-46.123-17.592-63.719 0-17.595 17.596-17.595 46.125 0 63.721l254.862 254.861-254.862 254.859c-17.595 17.595-17.595 46.123 0 63.719z" />
<glyph unicode="&#xe909;" glyph-name="deo-arrow-up-1" data-tags="Up" horiz-adv-x="983" d="M131.976 256.639c-17.595 17.596-17.595 46.125 0 63.721l327.681 327.679c17.596 17.596 46.121 17.596 63.717 0l327.68-327.679c17.596-17.596 17.596-46.125 0-63.721-17.596-17.592-46.121-17.592-63.717 0l-295.821 295.822-295.82-295.822c-17.596-17.592-46.123-17.592-63.719 0z" />
<glyph unicode="&#xe90a;" glyph-name="deo-message" data-tags="Message" horiz-adv-x="983" d="M802.296 730.423c-3.006 7.909-9.13 14.139-16.851 17.147-110.445 43.008-502.261 43.523-614.025 0-7.721-3.009-13.842-9.239-16.852-17.147-1.295-3.4-31.688-85.049-31.688-239.911s30.393-236.511 31.686-239.911c3.009-7.905 9.131-14.135 16.851-17.146 2.482-0.967 61.277-23.282 211.061-30.319l76.417-70.762c11.104-10.285 27.963-10.285 39.072 0l76.419 70.762c149.783 7.041 208.577 29.352 211.059 30.319 7.721 3.011 13.844 9.241 16.851 17.146 1.294 3.4 31.687 85.053 31.687 239.911 0 154.86-30.392 236.511-31.687 239.911zM752.067 285.897c-24.011-6.345-83.202-18.772-190.579-23.175-6.808-0.279-13.308-2.998-18.371-7.688l-64.684-59.896-64.684 59.896c-5.068 4.69-11.566 7.41-18.375 7.688-107.376 4.403-166.561 16.83-190.573 23.175-31.447 111.698-31.273 298.149-0.008 409.224 126.143 33.247 421.272 33.21 547.274 0.001 31.314-111.246 31.4-297.687 0-409.225zM330.074 555.1h148.339c16.13 0 29.204-13.453 29.204-30.050s-13.074-30.052-29.204-30.052h-148.339c-16.129 0-29.204 13.455-29.204 30.052s13.075 30.050 29.204 30.050zM330.074 432.988h89.004c16.126 0 29.204-13.451 29.204-30.048s-13.079-30.052-29.204-30.052h-89.004c-16.129 0-29.204 13.455-29.204 30.052s13.075 30.048 29.204 30.048zM614.273 628.47c6.353 15.257 23.519 22.319 38.347 15.782s21.692-24.203 15.34-39.458l-89.002-213.692c-4.747-11.391-15.528-18.219-26.857-18.219-20.828 0-35.115 22.008-26.829 41.894l89.002 213.693z" />
<glyph unicode="&#xe90b;" glyph-name="deo-blank-1" data-tags="Blank 1" horiz-adv-x="983" d="M569.049 795.183v-167.911c0-39.588 32.092-71.68 71.68-71.68h116.503v-405.429c0-28.279-22.925-51.2-51.2-51.2h-429.292c-28.277 0-51.2 22.921-51.2 51.2v593.818c0 28.277 22.923 51.2 51.2 51.2l292.309 0.001zM742.019 617.032h-101.29c-5.652 0-10.24 4.585-10.24 10.24v127.759l111.53-137.999zM573.587 856.623l-296.848-0.001c-62.209 0-112.64-50.431-112.64-112.64v-593.818c0-62.21 50.43-112.64 112.64-112.64h429.292c62.206 0 112.64 50.43 112.64 112.64v429.943c0 25.769-8.839 50.759-25.035 70.801l-132.44 163.876c-21.385 26.461-53.588 41.839-87.609 41.839z" />
<glyph unicode="&#xe90c;" glyph-name="deo-blank-2" data-tags="blank 2" horiz-adv-x="983" d="M630.489 139.112v113.254c0 5.657 4.588 10.24 10.24 10.24h89.567l-99.807-123.494zM757.232 324.047v419.933c0 28.277-22.925 51.2-51.2 51.2h-429.292c-28.277 0-51.2-22.923-51.2-51.2v-593.82c0-28.275 22.923-51.2 51.2-51.2h292.309v153.407c0 39.588 32.092 71.68 71.68 71.68h116.503zM573.587 37.519h-296.848c-62.209 0-112.64 50.434-112.64 112.64v593.82c0 62.21 50.431 112.64 112.64 112.64h429.292c62.206 0 112.64-50.43 112.64-112.64v-429.944c0-25.768-8.839-50.762-25.035-70.803l-132.44-163.873c-21.385-26.464-53.588-41.841-87.609-41.841z" />
<glyph unicode="&#xe90d;" glyph-name="deo-clip" data-tags="Clip" horiz-adv-x="983" d="M522.965 504.75h46.69c5.652 0 10.24 4.583 10.24 10.24v16.908c0 16.966 13.75 30.721 30.72 30.721 16.966 0 30.72-13.756 30.72-30.721v-16.908c0-39.588-32.092-71.68-71.68-71.68h-46.69c-39.588 0-71.68 32.092-71.68 71.68v131.011h-143.045c-28.277 0-51.2-22.923-51.2-51.2v-403.321c0-28.275 22.923-51.2 51.2-51.2h366.642c28.279 0 51.2 22.925 51.2 51.2v403.321c0 28.277-22.921 51.2-51.2 51.2h-162.157v-131.011c0-5.657 4.583-10.24 10.24-10.24zM512.725 707.441h67.17v37.089c0 5.655-4.588 10.24-10.24 10.24h-46.69c-5.657 0-10.24-4.585-10.24-10.24v-37.089zM451.285 707.441v37.089c0 39.588 32.092 71.68 71.68 71.68h46.69c39.588 0 71.68-32.092 71.68-71.68v-37.089h33.546c62.21 0 112.64-50.431 112.64-112.64v-403.321c0-62.206-50.43-112.64-112.64-112.64h-366.642c-62.209 0-112.64 50.434-112.64 112.64v403.321c0 62.209 50.43 112.64 112.64 112.64h143.045zM345.194 344.064c0-16.966 13.754-30.72 30.72-30.72h231.215c16.97 0 30.72 13.754 30.72 30.72s-13.75 30.72-30.72 30.72h-231.215c-16.966 0-30.72-13.754-30.72-30.72zM376.078 253.231c-16.966 0.045-30.756-13.672-30.802-30.638s13.672-30.757 30.638-30.802l121.471-0.319c16.966-0.045 30.757 13.672 30.802 30.638s-13.672 30.757-30.638 30.802l-121.472 0.319z" />
<glyph unicode="&#xe90e;" glyph-name="deo-note-1" data-tags="Filled 1" horiz-adv-x="983" d="M569.049 795.183l-292.309-0.001c-28.277 0-51.2-22.923-51.2-51.2v-593.818c0-28.279 22.923-51.2 51.2-51.2h429.292c28.275 0 51.2 22.921 51.2 51.2v420.039h-116.503c-39.588 0-71.68 32.092-71.68 71.68v153.301zM630.489 755.031v-113.149c0-5.655 4.588-10.24 10.24-10.24h89.481l-99.721 123.389zM276.74 856.621l296.848 0.001c34.021 0 66.224-15.377 87.609-41.839l132.44-163.876c16.196-20.042 25.035-45.032 25.035-70.801v-429.943c0-62.21-50.434-112.64-112.64-112.64h-429.292c-62.21 0-112.64 50.43-112.64 112.64v593.818c0 62.209 50.43 112.64 112.64 112.64zM327.68 232.96c0 16.966 13.754 30.72 30.72 30.72h266.24c16.966 0 30.72-13.754 30.72-30.72s-13.754-30.72-30.72-30.72h-266.24c-16.966 0-30.72 13.754-30.72 30.72zM358.4 396.272c-16.966 0-30.72-13.754-30.72-30.72s13.754-30.72 30.72-30.72h266.24c16.966 0 30.72 13.754 30.72 30.72s-13.754 30.72-30.72 30.72h-266.24zM327.68 498.143c0 16.966 13.754 30.72 30.72 30.72h157.012c16.966 0 30.72-13.754 30.72-30.72s-13.754-30.72-30.72-30.72h-157.012c-16.966 0-30.72 13.754-30.72 30.72z" />
<glyph unicode="&#xe90f;" glyph-name="deo-note-2" data-tags="Filled 2" horiz-adv-x="983" d="M276.74 98.959h296.847c15.466 0 30.102 6.992 39.821 19.018l132.444 163.877c7.361 9.11 11.379 20.468 11.379 32.182v429.944c0 28.277-22.925 51.2-51.2 51.2h-429.292c-28.277 0-51.2-22.923-51.2-51.2v-593.82c0-28.275 22.923-51.2 51.2-51.2zM573.587 37.519h-296.848c-62.209 0-112.64 50.434-112.64 112.64v593.82c0 62.21 50.431 112.64 112.64 112.64h429.292c62.206 0 112.64-50.43 112.64-112.64v-429.944c0-25.768-8.839-50.762-25.035-70.803l-132.44-163.873c-21.385-26.464-53.588-41.841-87.609-41.841zM358.13 632.32c-16.966 0-30.72 13.754-30.72 30.72s13.754 30.72 30.72 30.72h266.24c16.966 0 30.72-13.754 30.72-30.72s-13.754-30.72-30.72-30.72h-266.24zM327.41 529.998c0-16.966 13.754-30.72 30.72-30.72h266.24c16.966 0 30.72 13.754 30.72 30.72 0 16.97-13.754 30.722-30.72 30.722h-266.24c-16.966 0-30.72-13.752-30.72-30.722zM358.13 366.24c-16.966 0-30.72 13.754-30.72 30.72s13.754 30.72 30.72 30.72h157.012c16.97 0 30.72-13.754 30.72-30.72s-13.75-30.72-30.72-30.72h-157.012zM763.601 262.607h-122.872v61.44h122.872v-61.44zM630.489 252.367v-174.567h-61.44v174.567h61.44zM640.729 262.607c-5.652 0-10.24-4.583-10.24-10.24h-61.44c0 39.588 32.092 71.68 71.68 71.68v-61.44z" />
<glyph unicode="&#xe910;" glyph-name="deo-note-3" data-tags="Filled 3" horiz-adv-x="983" d="M569.192 755.060l-292.848-0.001c-28.277 0-51.2-22.923-51.2-51.2v-512.678c0-28.279 22.923-51.2 51.2-51.2h430.084c28.275 0 51.2 22.921 51.2 51.2v362.981h-116.756c-39.588 0-71.68 32.092-71.68 71.68v129.218zM630.632 720.443v-94.601c0-5.655 4.583-10.24 10.24-10.24h84.779l-95.019 104.841zM276.344 816.499l300.217 0.001c31.797 0 62.112-13.438 83.464-36.997l129.864-143.29c18.78-20.718 29.18-47.681 29.18-75.643v-369.39c0-62.21-50.43-112.64-112.64-112.64h-430.084c-62.21 0-112.64 50.43-112.64 112.64v512.678c0 62.209 50.431 112.64 112.64 112.64zM358.398 468.48c-16.966 0-30.72-13.754-30.72-30.72s13.754-30.72 30.72-30.72h157.014c16.966 0 30.72 13.754 30.72 30.72s-13.754 30.72-30.72 30.72h-157.014zM358.398 303.469c-16.966 0-30.72-13.754-30.72-30.72s13.754-30.72 30.72-30.72h266.242c16.966 0 30.72 13.754 30.72 30.72s-13.754 30.72-30.72 30.72h-266.242z" />
<glyph unicode="&#xe911;" glyph-name="deo-note-4" data-tags="Note 2" horiz-adv-x="983" d="M358.28 591.57c-16.966 0-30.72 13.754-30.72 30.72s13.754 30.72 30.72 30.72h266.241c16.966 0 30.72-13.754 30.72-30.72s-13.754-30.72-30.72-30.72h-266.241zM327.56 468.779c0-16.966 13.754-30.72 30.72-30.72h266.241c16.966 0 30.72 13.754 30.72 30.72s-13.754 30.72-30.72 30.72h-266.241c-16.966 0-30.72-13.754-30.72-30.72zM358.41 345.989c-16.966 0-30.72-13.754-30.72-30.72s13.754-30.72 30.72-30.72h102.701c16.966 0 30.72 13.754 30.72 30.72s-13.754 30.72-30.72 30.72h-102.701zM276.36 78.541h303.822c30.396 0 59.503 12.284 80.703 34.058l126.259 129.671c20.48 21.029 31.937 49.226 31.937 78.578v383.012c0 62.21-50.43 112.64-112.64 112.64h-430.081c-62.209 0-112.64-50.43-112.64-112.64v-512.679c0-62.21 50.43-112.64 112.64-112.64zM580.186 139.981h-303.826c-28.277 0-51.2 22.925-51.2 51.2v512.679c0 28.277 22.923 51.2 51.2 51.2h430.081c28.279 0 51.2-22.923 51.2-51.2v-379.948h-102.281c-39.588 0-71.68-32.092-71.68-71.68v-112.132c-1.159-0.078-2.327-0.119-3.494-0.119zM655.36 262.472h65.704l-75.944-77.996v67.756c0 5.657 4.583 10.24 10.24 10.24z" />
<glyph unicode="&#xe912;" glyph-name="deo-link-1" data-tags="1" horiz-adv-x="983" d="M286.716 581.368c-71.258 0-129.024-57.764-129.024-129.022s57.766-129.024 129.024-129.024h122.88c19.227 0 34.816-15.589 34.816-34.816 0-19.231-15.589-34.816-34.816-34.816h-122.88c-109.715 0-198.656 88.941-198.656 198.656 0 109.713 88.941 198.654 198.656 198.654h122.88c19.227 0 34.816-15.587 34.816-34.816s-15.589-34.816-34.816-34.816h-122.88zM696.324 323.314c71.258 0 129.024 57.766 129.024 129.024s-57.766 129.022-129.024 129.022h-122.88c-19.227 0-34.816 15.588-34.816 34.816s15.589 34.816 34.816 34.816h122.88c109.715 0 198.656-88.941 198.656-198.654 0-109.715-88.941-198.656-198.656-198.656h-122.88c-19.227 0-34.816 15.585-34.816 34.816 0 19.227 15.589 34.816 34.816 34.816h122.88zM614.404 417.522c19.227 0 34.816 15.585 34.816 34.816 0 19.227-15.589 34.816-34.816 34.816h-245.76c-19.228 0-34.816-15.589-34.816-34.816 0-19.231 15.588-34.816 34.816-34.816h245.76z" />
<glyph unicode="&#xe913;" glyph-name="deo-link-2" data-tags="2" horiz-adv-x="983" d="M483.299 675.108c-13.431-13.763-13.431-36.077 0-49.839 13.427-13.763 35.197-13.763 48.628 0l29.43 30.163c29.479 30.214 74.572 37.571 111.747 18.233 18.239-9.487 33.059-24.677 42.316-43.37 18.87-38.102 11.69-84.319-17.789-114.531l-81.977-84.021c-29.323-30.056-72.819-36.733-108.442-20.034-17.269 8.098-38.961 8.868-52.388-4.895s-13.57-36.471 2.331-47.108c64.098-42.881 150.852-35.48 207.127 22.196l81.977 84.021c50.52 51.773 62.82 130.976 30.487 196.27-15.864 32.034-41.259 58.063-72.516 74.322-63.709 33.14-140.984 20.531-191.5-31.245l-29.43-30.163zM499.741 229.581c13.431 13.763 13.431 36.078 0 49.84-13.427 13.763-35.197 13.763-48.628 0l-29.43-30.163c-29.479-30.212-74.573-37.573-111.749-18.231-18.239 9.486-33.059 24.674-42.316 43.368-18.868 38.101-11.69 84.32 17.79 114.532l81.979 84.021c29.323 30.052 72.818 36.733 108.441 20.034 17.269-8.098 38.961-8.872 52.388 4.895 13.427 13.763 13.57 36.467-2.335 47.108-64.094 42.878-150.848 35.479-207.122-22.196l-81.979-84.021c-50.518-51.778-62.82-130.978-30.486-196.272 15.863-32.035 41.26-58.065 72.516-74.322 63.708-33.141 140.985-20.529 191.501 31.244l29.43 30.163z" />
<glyph unicode="&#xe914;" glyph-name="deo-more-vertical" data-tags="Vertical" horiz-adv-x="983" d="M491.549 636.66c39.588 0 71.68 32.092 71.68 71.68s-32.092 71.68-71.68 71.68c-39.588 0-71.68-32.092-71.68-71.68s32.092-71.68 71.68-71.68zM563.241 452.35c0-39.588-32.092-71.68-71.68-71.68s-71.68 32.092-71.68 71.68c0 39.588 32.092 71.68 71.68 71.68s71.68-32.092 71.68-71.68zM563.229 196.342c0-39.588-32.092-71.68-71.68-71.68s-71.68 32.092-71.68 71.68c0 39.588 32.092 71.68 71.68 71.68s71.68-32.092 71.68-71.68z" />
<glyph unicode="&#xe915;" glyph-name="deo-more-horizontal" data-tags="Horizontal" horiz-adv-x="983" d="M235.52 380.662c-39.588 0-71.68 32.092-71.68 71.68s32.092 71.68 71.68 71.68c39.588 0 71.68-32.092 71.68-71.68s-32.092-71.68-71.68-71.68zM747.52 380.662c-39.588 0-71.68 32.092-71.68 71.68s32.092 71.68 71.68 71.68c39.588 0 71.68-32.092 71.68-71.68s-32.092-71.68-71.68-71.68zM430.080 452.342c0-39.588 32.092-71.68 71.68-71.68s71.68 32.092 71.68 71.68c0 39.588-32.092 71.68-71.68 71.68s-71.68-32.092-71.68-71.68z" />
<glyph unicode="&#xe916;" glyph-name="deo-list" data-tags="List" horiz-adv-x="983" d="M212.992 665.332v65.536h65.536v-65.536h-65.536zM163.84 739.060c0 22.621 18.339 40.96 40.96 40.96h81.92c22.621 0 40.96-18.339 40.96-40.96v-81.92c0-22.622-18.339-40.96-40.96-40.96h-81.92c-22.621 0-40.96 18.338-40.96 40.96v81.92zM440.32 718.58c-16.966 0-30.72-13.754-30.72-30.72s13.754-30.72 30.72-30.72h348.16c16.966 0 30.72 13.754 30.72 30.72s-13.754 30.72-30.72 30.72h-348.16zM212.992 485.11v-65.536h65.536v65.536h-65.536zM204.8 534.262c-22.621 0-40.96-18.342-40.96-40.96v-81.92c0-22.622 18.339-40.96 40.96-40.96h81.92c22.621 0 40.96 18.338 40.96 40.96v81.92c0 22.618-18.339 40.96-40.96 40.96h-81.92zM440.32 472.822c-16.966 0-30.72-13.754-30.72-30.72 0-16.97 13.754-30.72 30.72-30.72h348.16c16.966 0 30.72 13.75 30.72 30.72 0 16.966-13.754 30.72-30.72 30.72h-348.16zM212.992 239.35v-65.536h65.536v65.536h-65.536zM204.8 288.502c-22.621 0-40.96-18.342-40.96-40.96v-81.92c0-22.622 18.339-40.96 40.96-40.96h81.92c22.621 0 40.96 18.338 40.96 40.96v81.92c0 22.618-18.339 40.96-40.96 40.96h-81.92zM450.56 237.302c-16.966 0-30.72-13.754-30.72-30.72 0-16.97 13.754-30.72 30.72-30.72h160.031c16.966 0 30.72 13.75 30.72 30.72 0 16.966-13.754 30.72-30.72 30.72h-160.031zM732.516 237.302c-16.966 0-30.72-13.754-30.72-30.72 0-16.97 13.754-30.72 30.72-30.72h45.724c16.966 0 30.72 13.75 30.72 30.72 0 16.966-13.754 30.72-30.72 30.72h-45.724z" />
<glyph unicode="&#xe917;" glyph-name="deo-pencil-edit" data-tags="Edit" horiz-adv-x="983" d="M379.080 505.201c-5.427-5.427-8.908-12.493-9.903-20.103l-17.585-134.459c-1.402-10.723 2.257-21.488 9.903-29.135s18.411-11.305 29.133-9.904l134.458 17.588c7.61 0.995 14.68 4.477 20.103 9.9l258.474 258.475c13.599 13.596 13.599 35.641 0 49.237l-116.871 116.874c-13.599 13.596-35.643 13.596-49.238 0l-258.474-258.473zM426.508 386.519l10.179 77.812 225.485 225.487 67.637-67.637-225.485-225.488-77.816-10.174zM239.612 616.183c0 26.015 21.089 47.104 47.104 47.104h122.88c19.227 0 34.816 15.587 34.816 34.816s-15.589 34.816-34.816 34.816h-122.88c-64.471 0-116.736-52.265-116.736-116.736v-368.641c0-64.471 52.265-116.736 116.736-116.736h368.64c64.471 0 116.736 52.265 116.736 116.736v81.92c0 19.231-15.589 34.816-34.816 34.816s-34.816-15.585-34.816-34.816v-81.92c0-26.014-21.090-47.104-47.104-47.104h-368.64c-26.015 0-47.104 21.090-47.104 47.104v368.641z" />
<glyph unicode="&#xe918;" glyph-name="deo-pencil" data-tags="Create" horiz-adv-x="983" d="M193.914 349.565c2.788 15.081 10.087 28.963 20.932 39.809l367.667 367.664c29.59 29.592 77.57 29.592 107.16 0l106.23-106.229c29.594-29.592 29.594-77.571 0-107.163l-367.665-367.665c-10.846-10.846-24.725-18.145-39.807-20.931l-130.318-24.093c-52.241-9.654-97.944 36.049-88.287 88.289l24.089 130.318zM264.083 340.136c-0.879-0.881-1.471-2.007-1.697-3.228l-24.089-130.318c-0.783-4.235 2.922-7.942 7.158-7.16l130.318 24.089c1.223 0.229 2.348 0.819 3.228 1.7l367.664 367.664c2.4 2.399 2.4 6.289 0 8.689l-106.226 106.229c-2.4 2.399-6.291 2.399-8.692 0l-367.664-367.664z" />
<glyph unicode="&#xe919;" glyph-name="deo-setting-1" data-tags="1" horiz-adv-x="983" d="M156.22 581.36c-19.229 0-34.816 15.588-34.816 34.816s15.587 34.816 34.816 34.816h315.943c15.409 58.926 69.009 102.408 132.764 102.408 63.75 0 117.35-43.477 132.76-102.398h89.78c19.227 0 34.816-15.587 34.816-34.816s-15.589-34.816-34.816-34.816h-89.78c-15.409-58.925-69.005-102.4-132.76-102.4-63.75 0-117.346 43.471-132.76 102.39h-315.947zM604.926 683.768c-37.327 0-67.584-30.258-67.584-67.584s30.257-67.582 67.584-67.582c37.327 0 67.584 30.257 67.584 67.582s-30.257 67.584-67.584 67.584zM520.262 253.69h307.212c19.231 0 34.816 15.585 34.816 34.816 0 19.227-15.585 34.816-34.816 34.816h-304.23c-13.357 61.792-68.329 108.089-134.119 108.089-65.789 0-120.764-46.297-134.119-108.089h-98.799c-19.228 0-34.816-15.589-34.816-34.816 0-19.231 15.588-34.816 34.816-34.816h101.779c17.281-56.013 69.457-96.711 131.139-96.711s113.857 40.698 131.138 96.711zM456.708 294.195c0-37.327-30.257-67.584-67.584-67.584s-67.584 30.257-67.584 67.584 30.258 67.584 67.584 67.584c37.327 0 67.584-30.257 67.584-67.584z" />
<glyph unicode="&#xe91a;" glyph-name="deo-setting-2" data-tags="2" horiz-adv-x="983" d="M491.524 586.62c-74.162 0-134.284-60.12-134.284-134.282s60.122-134.283 134.284-134.283c74.162 0 134.279 60.121 134.279 134.283s-60.117 134.282-134.279 134.282zM439.161 452.338c0 28.918 23.441 52.363 52.363 52.363 28.918 0 52.359-23.446 52.359-52.363s-23.441-52.363-52.359-52.363c-28.922 0-52.363 23.446-52.363 52.363zM594.981 753.682c-24.912 110.264-182.018 110.264-206.93 0-3.676-16.271-22.348-24.006-36.453-15.099-95.582 60.354-206.675-50.738-146.321-146.321 8.906-14.105 1.172-32.777-15.099-36.453-110.264-24.91-110.264-182.021 0-206.928 16.271-3.678 24.005-22.348 15.099-36.454-60.354-95.58 50.738-206.676 146.321-146.321 14.105 8.909 32.777 1.171 36.453-15.098 24.912-110.264 182.018-110.264 206.93 0 3.674 16.269 22.348 24.007 36.45 15.098 95.584-60.355 206.676 50.741 146.321 146.321-8.905 14.107-1.171 32.776 15.102 36.454 110.26 24.908 110.26 182.018 0 206.928-16.273 3.676-24.007 22.348-15.102 36.453 60.355 95.582-50.737 206.675-146.321 146.321-14.103-8.906-32.776-1.172-36.45 15.099zM467.956 735.63c5.673 25.106 41.447 25.106 47.116 0 16.146-71.461 98.152-105.429 160.096-66.314 21.766 13.742 47.059-11.553 33.317-33.316-39.113-61.947-5.145-143.951 66.314-160.098 25.108-5.673 25.108-41.443 0-47.116-71.459-16.142-105.427-98.148-66.314-160.096 13.742-21.762-11.551-47.059-33.317-33.317-61.944 39.117-143.95 5.149-160.096-66.314-5.669-25.104-41.443-25.104-47.116 0-16.142 71.463-98.149 105.431-160.095 66.314-21.763-13.742-47.059 11.555-33.316 33.317 39.116 61.948 5.147 143.954-66.314 160.096-25.106 5.673-25.106 41.443 0 47.116 71.462 16.146 105.43 98.151 66.314 160.098-13.742 21.763 11.553 47.059 33.316 33.316 61.947-39.115 143.953-5.147 160.095 66.314z" />
<glyph unicode="&#xe91b;" glyph-name="deo-trash" data-tags="Trash" horiz-adv-x="983" d="M417.096 488.751c19.227 0 34.816-15.589 34.816-34.816v-148.824c0-19.227-15.589-34.816-34.816-34.816-19.23 0-34.818 15.589-34.818 34.816v148.824c0 19.227 15.588 34.816 34.818 34.816zM597.549 453.935c0 19.227-15.585 34.816-34.816 34.816-19.227 0-34.816-15.589-34.816-34.816v-148.824c0-19.227 15.589-34.816 34.816-34.816 19.231 0 34.816 15.589 34.816 34.816v148.824zM671.982 670.792h112.402c19.227 0 34.816-15.588 34.816-34.816s-15.589-34.816-34.816-34.816h-39.727c0.094-1.046 0.143-2.105 0.143-3.176v-391.394c0-64.471-52.265-116.736-116.736-116.736h-273.068c-64.471 0-116.736 52.265-116.736 116.736v391.394c0 1.071 0.048 2.13 0.143 3.176h-39.747c-19.228 0-34.816 15.588-34.816 34.816s15.588 34.816 34.816 34.816h112.421v27.301c0 64.471 52.265 116.736 116.734 116.736h127.435c64.471 0 116.736-52.265 116.736-116.736v-27.301zM380.709 670.792v27.301c0 26.015 21.089 47.104 47.106 47.104h127.431c26.014 0 47.104-21.089 47.104-47.104v-27.301h-221.641zM307.749 601.16c0.094-1.046 0.143-2.105 0.143-3.176v-391.394c0-26.018 21.089-47.104 47.104-47.104h273.068c26.014 0 47.104 21.086 47.104 47.104v391.394c0 1.071 0.045 2.13 0.143 3.176h-367.562z" />
<glyph unicode="&#xe91c;" glyph-name="deo-dots" data-tags="Pagination" d="M512-64c282.77 0 512 229.23 512 512s-229.23 512-512 512c-282.77 0-512-229.23-512-512s229.23-512 512-512z" />
<glyph unicode="&#xe91d;" glyph-name="deo-sort-1" data-tags="Sort-1" horiz-adv-x="983" d="M737.28 575.22c22.622 0 40.96 18.338 40.96 40.96s-18.338 40.96-40.96 40.96h-491.52c-22.621 0-40.96-18.339-40.96-40.96s18.339-40.96 40.96-40.96h491.52zM696.32 452.342c0-22.622-18.338-40.96-40.96-40.96h-325.539c-22.621 0-40.96 18.338-40.96 40.96 0 22.618 18.339 40.96 40.96 40.96h325.539c22.622 0 40.96-18.342 40.96-40.96zM634.88 288.502c0-22.622-18.338-40.96-40.96-40.96h-163.84c-22.621 0-40.96 18.338-40.96 40.96 0 22.618 18.339 40.96 40.96 40.96h163.84c22.622 0 40.96-18.342 40.96-40.96z" />
<glyph unicode="&#xe91e;" glyph-name="deo-sort-2" data-tags="Sort" horiz-adv-x="983" d="M298.717 604.183c-15.996-15.996-15.996-41.93 0-57.924 15.996-15.999 41.93-15.999 57.926 0l134.877 134.875 134.877-134.875c15.995-15.999 41.931-15.999 57.926 0 15.995 15.994 15.995 41.928 0 57.924l-163.84 163.84c-15.995 15.996-41.931 15.996-57.926 0l-163.84-163.84zM684.323 300.499c15.995 15.995 15.995 41.927 0 57.926-15.995 15.995-41.931 15.995-57.926 0l-134.877-134.877-134.877 134.877c-15.996 15.995-41.93 15.995-57.926 0-15.996-15.999-15.996-41.931 0-57.926l163.84-163.84c7.68-7.684 18.1-11.997 28.963-11.997s21.283 4.313 28.963 11.997l163.84 163.84z" />
<glyph unicode="&#xe91f;" glyph-name="deo-refresh" data-tags="Refresh" horiz-adv-x="983" d="M527.52 704.244c-64.156 0-122.617-27.236-165.522-72.101-20.876-21.829-44.283-49.171-64.216-73.307h79.26c19.228 0 34.816-15.588 34.816-34.814 0-19.231-15.587-34.816-34.816-34.816h-151.779c-17.451 0-32.207 12.919-34.511 30.216l-20.462 153.601c-2.539 19.060 10.854 36.569 29.914 39.109s36.569-10.854 39.109-29.914l9.733-73.064c19.378 23.305 41.896 49.436 62.629 71.116 55.069 57.585 131.321 93.608 215.847 93.608 170.799 0 306-145.81 306-321.534 0-175.727-135.201-321.536-306-321.536-129.638 0-239.118 84.382-283.983 201.568-6.875 17.957 2.109 38.085 20.066 44.962 17.957 6.873 38.087-2.109 44.963-20.066 35.593-92.967 120.977-156.832 218.954-156.832 128.741 0 236.368 110.928 236.368 251.904 0 140.974-107.626 251.902-236.368 251.902z" />
<glyph unicode="&#xe920;" glyph-name="deo-rotate-left" data-tags="rotate-ccw" horiz-adv-x="983" d="M40.96 820.98c22.621 0 40.96-18.339 40.96-40.96v-204.8h204.8c22.621 0 40.96-18.339 40.96-40.958 0-22.622-18.339-40.96-40.96-40.96h-245.76c-22.622 0-40.96 18.338-40.96 40.96v245.758c0 22.621 18.338 40.96 40.96 40.96zM434.397 857.563c87.937 12.372 177.512-4.17 255.23-47.133 77.722-42.964 139.37-110.022 175.665-191.071s45.265-171.698 25.559-258.288c-19.706-86.589-67.019-164.43-134.808-221.794-67.793-57.36-152.388-91.14-241.046-96.244-88.658-5.1-176.572 18.747-250.497 67.953-73.925 49.209-129.855 121.106-159.364 204.866-7.517 21.336 3.686 44.724 25.022 52.24 21.336 7.52 44.726-3.682 52.243-25.018 23.607-67.006 68.352-124.527 127.491-163.893 59.14-39.363 129.472-58.442 200.398-54.362 70.922 4.084 138.6 31.105 192.836 76.997 54.231 45.892 92.082 108.163 107.848 177.435 15.761 69.272 8.585 141.791-20.447 206.63-29.037 64.839-78.356 118.485-140.534 152.857-62.173 34.371-133.837 47.605-204.186 37.707s-135.578-42.391-185.856-92.584c-0.292-0.292-0.589-0.58-0.89-0.862l-190.054-178.586c-16.486-15.491-42.407-14.684-57.898 1.802s-14.684 42.406 1.801 57.897l189.615 178.173c62.786 62.485 144.142 102.937 231.871 115.28z" />
<glyph unicode="&#xe921;" glyph-name="deo-rotate-right" data-tags="rotate-cw" horiz-adv-x="983" d="M942.080 820.98c22.622 0 40.96-18.339 40.96-40.96v-245.758c0-22.622-18.338-40.96-40.96-40.96h-245.76c-22.622 0-40.96 18.338-40.96 40.96 0 22.62 18.338 40.958 40.96 40.958h204.8v204.8c0 22.621 18.338 40.96 40.96 40.96zM537.698 776.693c-70.345 9.978-142.023-3.177-204.239-37.482s-111.597-87.903-140.702-152.715c-29.105-64.812-36.356-137.328-20.662-206.62s53.484-131.604 107.675-177.553c54.191-45.945 121.847-73.032 192.773-77.181s141.279 14.864 200.458 54.178c59.179 39.313 103.977 96.797 127.644 163.787 7.537 21.328 30.937 32.51 52.265 24.973 21.328-7.533 32.51-30.933 24.977-52.265-29.585-83.735-85.582-155.587-159.556-204.73s-161.915-72.913-250.573-67.723c-88.658 5.186-173.227 39.047-240.966 96.477-67.739 57.434-114.976 135.328-134.594 221.942s-10.553 177.258 25.827 258.275c36.381 81.015 98.107 148.011 175.877 190.893s167.372 59.326 255.3 46.853c87.716-12.442 169.034-52.99 231.748-115.551l189.202-178.17c16.47-15.51 17.248-41.43 1.741-57.9s-41.431-17.248-57.901-1.741l-189.645 178.587c-0.299 0.284-0.598 0.573-0.889 0.865-50.225 50.254-115.417 82.824-185.762 92.801z" />
<glyph unicode="&#xe922;" glyph-name="deo-search" data-tags="Search" horiz-adv-x="983" d="M466.936 820.98c-167.395 0-303.096-135.701-303.096-303.098 0-167.395 135.701-303.096 303.096-303.096 62.767 0 121.074 19.079 169.443 51.753l112.898-112.902c15.999-15.995 41.931-15.995 57.93 0 15.995 15.999 15.995 41.931 0 57.93l-109.642 109.638c45.187 52.941 72.466 121.623 72.466 196.678 0 167.397-135.7 303.098-303.096 303.098zM245.76 517.882c0 122.154 99.024 221.178 221.176 221.178 122.155 0 221.176-99.024 221.176-221.178 0-122.151-99.021-221.176-221.176-221.176-122.152 0-221.176 99.025-221.176 221.176z" />
<glyph unicode="&#xe923;" glyph-name="deo-bars-1" data-tags="server" horiz-adv-x="983" d="M163.84 820.98c-22.621 0-40.96-18.339-40.96-40.96v-163.84c0-22.622 18.339-40.96 40.96-40.96h655.36c22.622 0 40.96 18.338 40.96 40.96v163.84c0 22.621-18.338 40.96-40.96 40.96h-655.36zM40.96 780.020c0 67.865 55.015 122.88 122.88 122.88h655.36c67.867 0 122.88-55.015 122.88-122.88v-163.84c0-67.865-55.013-122.878-122.88-122.878h-655.36c-67.865 0-122.88 55.013-122.88 122.878v163.84zM163.84 329.462c-22.621 0-40.96-18.342-40.96-40.96v-163.84c0-22.622 18.339-40.96 40.96-40.96h655.36c22.622 0 40.96 18.338 40.96 40.96v163.84c0 22.618-18.338 40.96-40.96 40.96h-655.36zM40.96 288.502c0 67.863 55.015 122.88 122.88 122.88h655.36c67.867 0 122.88-55.017 122.88-122.88v-163.84c0-67.867-55.013-122.88-122.88-122.88h-655.36c-67.865 0-122.88 55.013-122.88 122.88v163.84z" />
<glyph unicode="&#xe924;" glyph-name="deo-upload" data-tags="Share" horiz-adv-x="983" d="M344.019 640.795c-13.596-13.597-13.596-35.641 0-49.237s35.641-13.597 49.237 0l63.452 63.453v-284.585c0-19.231 15.589-34.816 34.816-34.816 19.231 0 34.816 15.585 34.816 34.816v284.569l63.439-63.437c13.599-13.597 35.639-13.597 49.238 0 13.595 13.596 13.595 35.641 0 49.237l-122.88 122.88c-13.599 13.596-35.639 13.596-49.238 0l-122.88-122.88zM813.060 288.498c0-64.475-52.261-116.736-116.736-116.736h-409.598c-64.471 0-116.736 52.261-116.736 116.736v163.84c0 19.227 15.587 34.816 34.816 34.816s34.816-15.589 34.816-34.816v-163.84c0-26.018 21.089-47.104 47.104-47.104h409.598c26.018 0 47.104 21.086 47.104 47.104v163.84c0 19.227 15.589 34.816 34.816 34.816 19.231 0 34.816-15.589 34.816-34.816v-163.84z" />
<glyph unicode="&#xe925;" glyph-name="deo-share" data-tags="Share-Integration" horiz-adv-x="983" d="M667.648 533.516c-32.801 0-62.435 13.771-83.902 36.003l-144.441-93.355c2.003-8.974 3.064-18.321 3.064-27.918 0-11.6-1.548-22.831-4.44-33.481l145.465-88.162c21.496 22.45 51.274 36.368 84.255 36.368 65.749 0 118.784-55.329 118.784-123.253 0-67.92-53.035-123.249-118.784-123.249s-118.784 55.329-118.784 123.249c0 9.437 1.024 18.629 2.961 27.464l-148.31 89.887c-21.080-19.919-49.109-32.076-79.931-32.076-65.749 0-118.784 55.329-118.784 123.253 0 67.92 53.035 123.251 118.784 123.251 32.8 0 62.436-13.77 83.902-36.006l144.442 93.355c-2.003 8.976-3.064 18.323-3.064 27.922 0 67.921 53.035 123.252 118.784 123.252s118.784-55.331 118.784-123.252c0-67.922-53.035-123.252-118.784-123.252zM614.4 656.768c0 30.791 23.986 55.482 53.248 55.482s53.248-24.691 53.248-55.482c0-30.791-23.986-55.482-53.248-55.482s-53.248 24.691-53.248 55.482zM270.336 448.246c0 30.79 23.986 55.48 53.248 55.48s53.248-24.691 53.248-55.48c0-30.794-23.986-55.484-53.248-55.484s-53.248 24.691-53.248 55.484zM614.4 239.718c0 30.794 23.986 55.484 53.248 55.484s53.248-24.691 53.248-55.484c0-30.79-23.986-55.48-53.248-55.48s-53.248 24.691-53.248 55.48z" />
<glyph unicode="&#xe926;" glyph-name="deo-shield" data-tags="Shield" horiz-adv-x="983" d="M505.545 708.785c-9.105 2.825-18.85 2.822-27.951-0.008l-198.777-61.818c-2.569-0.799-4.319-3.176-4.319-5.867v-213.449c0 0 0 0 0 0 0-50.119 34.72-100.286 84.55-145.052 48.528-43.594 104.362-75.747 131.67-90.214 0.369-0.193 0.647-0.238 0.856-0.238 0.205 0 0.492 0.041 0.86 0.238 27.353 14.463 83.317 46.617 131.957 90.218 49.959 44.782 84.742 94.949 84.742 145.048v213.434c0 2.688-1.745 5.066-4.321 5.864l-199.266 61.844zM456.917 775.268c22.553 7.015 46.707 7.022 69.267 0.020l199.266-61.843c31.703-9.839 53.314-39.166 53.314-72.367v-213.434c0-81.134-54.432-148.972-107.893-196.895-54.78-49.103-116.437-84.357-145.891-99.93-20.984-11.092-45.887-11.084-66.863 0.029-29.413 15.585-90.946 50.844-145.605 99.946-53.358 47.935-107.646 115.757-107.647 196.846v213.453c0 33.182 21.588 62.504 53.273 72.357l198.779 61.818z" />
<glyph unicode="&#xe927;" glyph-name="deo-sliders" data-tags="sliders" horiz-adv-x="983" d="M163.84 411.382c22.621 0 40.96-18.342 40.96-40.96v-286.72c0-22.622-18.339-40.96-40.96-40.96s-40.96 18.338-40.96 40.96v286.72c0 22.618 18.339 40.96 40.96 40.96zM163.84 861.94c22.621 0 40.96-18.339 40.96-40.96v-286.718c0-22.622-18.339-40.96-40.96-40.96s-40.96 18.338-40.96 40.96v286.718c0 22.621 18.339 40.96 40.96 40.96zM491.52 493.302c22.622 0 40.96-18.342 40.96-40.96v-368.64c0-22.622-18.338-40.96-40.96-40.96s-40.96 18.338-40.96 40.96v368.64c0 22.618 18.338 40.96 40.96 40.96zM491.52 861.94c22.622 0 40.96-18.339 40.96-40.96v-204.8c0-22.622-18.338-40.96-40.96-40.96s-40.96 18.338-40.96 40.96v204.8c0 22.621 18.338 40.96 40.96 40.96zM819.2 329.462c22.622 0 40.96-18.342 40.96-40.96v-204.8c0-22.622-18.338-40.96-40.96-40.96s-40.96 18.338-40.96 40.96v204.8c0 22.618 18.338 40.96 40.96 40.96zM819.2 861.94c22.622 0 40.96-18.339 40.96-40.96v-368.638c0-22.622-18.338-40.96-40.96-40.96s-40.96 18.338-40.96 40.96v368.638c0 22.621 18.338 40.96 40.96 40.96zM0 370.422c0 22.618 18.338 40.96 40.96 40.96h245.76c22.621 0 40.96-18.342 40.96-40.96 0-22.622-18.339-40.96-40.96-40.96h-245.76c-22.622 0-40.96 18.338-40.96 40.96zM327.68 616.18c0 22.621 18.338 40.96 40.96 40.96h245.76c22.622 0 40.96-18.339 40.96-40.96s-18.338-40.96-40.96-40.96h-245.76c-22.622 0-40.96 18.338-40.96 40.96zM655.36 288.502c0 22.618 18.338 40.96 40.96 40.96h245.76c22.622 0 40.96-18.342 40.96-40.96 0-22.622-18.338-40.96-40.96-40.96h-245.76c-22.622 0-40.96 18.338-40.96 40.96z" />
<glyph unicode="&#xe928;" glyph-name="deo-plus-circle" data-tags="plus-circle" horiz-adv-x="983" d="M491.52 820.98c-203.594 0-368.64-165.046-368.64-368.638 0-203.596 165.046-368.64 368.64-368.64 203.596 0 368.64 165.044 368.64 368.64 0 203.592-165.044 368.638-368.64 368.638zM40.96 452.342c0 248.836 201.723 450.558 450.56 450.558s450.56-201.723 450.56-450.558c0-248.84-201.724-450.56-450.56-450.56s-450.56 201.72-450.56 450.56zM491.52 657.14c22.622 0 40.96-18.339 40.96-40.96v-327.678c0-22.622-18.338-40.96-40.96-40.96s-40.96 18.338-40.96 40.96v327.678c0 22.621 18.338 40.96 40.96 40.96zM286.72 452.342c0 22.618 18.339 40.96 40.96 40.96h327.68c22.622 0 40.96-18.342 40.96-40.96 0-22.622-18.338-40.96-40.96-40.96h-327.68c-22.621 0-40.96 18.338-40.96 40.96z" />
<glyph unicode="&#xe929;" glyph-name="deo-print" data-tags="Print" horiz-adv-x="983" d="M368.636 773.88h245.76c41.849 0 75.776-33.926 75.776-75.776v-88.064h6.144c64.471 0 116.736-52.264 116.736-116.734v-122.88c0-64.475-52.265-116.736-116.736-116.736h-6.144v-47.104c0-41.853-33.927-75.776-75.776-75.776h-245.76c-41.85 0-75.776 33.923-75.776 75.776v47.104h-6.144c-64.471 0-116.736 52.261-116.736 116.736v122.88c0 64.47 52.265 116.734 116.736 116.734h6.144v88.064c0 41.85 33.926 75.776 75.776 75.776zM620.54 610.040v88.064c0 3.394-2.753 6.144-6.144 6.144h-245.76c-3.393 0-6.144-2.75-6.144-6.144v-88.064h258.048zM327.676 540.41h-40.96c-26.015 0-47.104-21.090-47.104-47.104v-122.88c0-26.018 21.089-47.104 47.104-47.104h6.144v47.104c0 19.227 15.588 34.816 34.816 34.816h327.68c19.227 0 34.816-15.589 34.816-34.816v-47.104h6.144c26.014 0 47.104 21.086 47.104 47.104v122.88c0 26.014-21.090 47.104-47.104 47.104h-368.64zM362.492 206.586c0-3.396 2.751-6.144 6.144-6.144h245.76c3.391 0 6.144 2.748 6.144 6.144v129.024h-258.048v-129.024z" />
<glyph unicode="&#xe92a;" glyph-name="deo-mail" data-tags="Mail" horiz-adv-x="983" d="M245.756 732.92h491.52c64.471 0 116.736-52.264 116.736-116.736v-327.678c0-64.475-52.265-116.736-116.736-116.736h-491.52c-64.471 0-116.736 52.261-116.736 116.736v327.678c0 64.472 52.265 116.736 116.736 116.736zM198.941 621.43c-0.191-1.722-0.289-3.473-0.289-5.247v-327.678c0-26.018 21.089-47.104 47.104-47.104h491.52c26.014 0 47.104 21.086 47.104 47.104v327.678c0 0.999-0.033 1.99-0.094 2.972l-204.947-185.603c-43.258-39.17-108.794-40.382-153.465-2.839l-226.932 190.715zM729.285 663.288h-471.921l213.307-179.268c18.026-15.147 44.47-14.66 61.923 1.147l196.69 178.121z" />
<glyph unicode="&#xe92b;" glyph-name="deo-bars-2" data-tags="menu" horiz-adv-x="983" d="M81.92 452.342c0 22.618 18.339 40.96 40.96 40.96h737.28c22.622 0 40.96-18.342 40.96-40.96 0-22.622-18.338-40.96-40.96-40.96h-737.28c-22.621 0-40.96 18.338-40.96 40.96zM81.92 698.1c0 22.621 18.339 40.96 40.96 40.96h737.28c22.622 0 40.96-18.339 40.96-40.96s-18.338-40.96-40.96-40.96h-737.28c-22.621 0-40.96 18.338-40.96 40.96zM81.92 206.582c0 22.618 18.339 40.96 40.96 40.96h737.28c22.622 0 40.96-18.342 40.96-40.96 0-22.622-18.338-40.96-40.96-40.96h-737.28c-22.621 0-40.96 18.338-40.96 40.96z" />
<glyph unicode="&#xe92c;" glyph-name="deo-minus" data-tags="Minus-Subtract" horiz-adv-x="983" d="M204.8 493.302c-22.622 0-40.96-18.342-40.96-40.96 0-22.622 18.338-40.96 40.96-40.96 369.967 0 229.339 0 573.44 0 22.622 0 40.96 18.338 40.96 40.96 0 22.618-18.338 40.96-40.96 40.96-369.58 0-229.114 0-573.44 0z" />
<glyph unicode="&#xe92d;" glyph-name="deo-notification" data-tags="Notification - Active" horiz-adv-x="983" d="M796.856 522.867v76.333c0 168.634-136.704 305.338-305.336 305.338-168.634 0-305.338-136.705-305.338-305.338v-76.333c-1.894-47.063-23.286-91.214-59.045-121.868-31.786-27.087-51.694-65.544-55.457-107.135 0-95.42 156.944-152.67 419.84-152.67 262.898 0 419.84 57.25 419.84 152.67-3.764 41.591-23.671 80.048-55.456 107.135-35.758 30.654-57.151 74.805-59.048 121.868zM348.16 83.702c19.642-62.657 77.697-105.3 143.36-105.3s123.72 42.643 143.36 105.3c-44.892-3.318-92.594-5.022-143.36-5.022s-98.469 1.606-143.36 5.022z" />
<glyph unicode="&#xe92e;" glyph-name="deo-people" data-tags="People" horiz-adv-x="983" d="M414.888 630.547c0 42.32 34.304 76.627 76.624 76.627 42.324 0 76.628-34.307 76.628-76.627s-34.304-76.628-76.628-76.628c-42.32 0-76.624 34.307-76.624 76.628zM491.512 767.763c-75.78 0-137.214-61.434-137.214-137.216s61.434-137.216 137.214-137.216c75.784 0 137.22 61.434 137.22 137.216s-61.436 137.216-137.22 137.216zM455.873 446.996c-134.833 0-244.138-109.302-244.138-244.138v-35.639c0-16.732 13.563-30.294 30.294-30.294s30.295 13.562 30.295 30.294v35.639c0 101.372 82.178 183.55 183.548 183.55h71.283c101.372 0 183.55-82.178 183.55-183.55v-35.639c0-16.732 13.562-30.294 30.294-30.294 16.728 0 30.294 13.562 30.294 30.294v35.639c0 134.836-109.306 244.138-244.138 244.138h-71.283z" />
<glyph unicode="&#xe92f;" glyph-name="deo-phone" data-tags="Phone" horiz-adv-x="983" d="M377.17 738.557c-33.307 32.902-87.944 28.424-116.761 0.029-15.068-14.846-20.175-19.951-35.643-35.662-43.843-43.872-52.138-111.915-32.211-186.099 19.94-74.232 68.216-155.054 138.26-225.165 70.028-70.099 150.804-118.411 225.028-138.342 74.174-19.915 142.242-11.571 186.18 32.379 14.279 13.763 26.382 25.874 35.938 35.975 28.205 29.811 32.53 82.059-0.193 116.060-16.478 17.121-49.943 43.061-108.712 85.103-9.413 8.376-19.792 11.719-30.388 11.227-10.564-0.492-21.185-4.776-31.195-11.342-9.626-6.316-16.617-12.71-29.59-25.694l-23.179-23.187c-0.254 0.012-0.647 0.066-1.204 0.197-1.343 0.315-3.265 0.987-5.722 2.056-4.891 2.122-11.616 5.685-19.562 10.641-15.88 9.908-36.475 25.297-56.771 45.609-20.308 20.328-35.684 40.94-45.588 56.828-4.956 7.946-8.52 14.676-10.641 19.567-1.069 2.454-1.741 4.375-2.060 5.722-0.127 0.553-0.184 0.946-0.197 1.2l23.192 23.204c4.112 4.116 6.095 6.124 8.63 8.794 5.292 5.558 9.703 10.636 13.541 15.813 8.077 10.881 13.718 22.258 14.942 33.618 1.233 11.43-2.036 22.645-11.37 33.036-40.309 56.405-67.546 91.466-84.724 108.435zM306.559 691.714c2.233 2.2 6.778 3.8 11.824 3.949 5.023 0.148 9.806-1.164 12.596-3.92 12.836-12.68 36.725-43.212 71.99-92.285-1.609-1.917-3.535-4.051-5.804-6.436-2.047-2.151-3.753-3.881-7.514-7.646l-23.518-23.532c-20.846-20.845-22.161-48.907-10.374-79.491 11.769-30.536 36.714-64.016 69.189-96.518 32.449-32.481 65.909-57.442 96.436-69.222 30.573-11.801 58.642-10.494 79.483 10.359l23.527 23.544c6.324 6.328 10.613 10.433 14.053 13.332 50.774-36.491 80.036-59.359 91.963-71.75 3.154-3.277 4.583-8.024 4.432-12.853-0.152-4.841-1.884-9.445-4.628-12.341-8.778-9.282-20.23-20.738-34.263-34.275-27.009-27.017-76.632-30.667-135.016-12.239-58.212 18.375-124.391 58.515-183.602 117.785-59.23 59.286-99.344 125.51-117.759 183.702-18.472 58.364-14.912 107.905 11.88 134.713 15.394 15.635 20.267 20.505 35.105 35.126z" />
<glyph unicode="&#xe930;" glyph-name="deo-plus" data-tags="plus" horiz-adv-x="983" d="M491.52 780.020c22.622 0 40.96-18.339 40.96-40.96v-573.438c0-22.622-18.338-40.96-40.96-40.96s-40.96 18.338-40.96 40.96v573.438c0 22.621 18.338 40.96 40.96 40.96zM163.84 452.342c0 22.618 18.339 40.96 40.96 40.96h573.44c22.622 0 40.96-18.342 40.96-40.96 0-22.622-18.338-40.96-40.96-40.96h-573.44c-22.621 0-40.96 18.338-40.96 40.96z" />
<glyph unicode="&#xe931;" glyph-name="deo-info" data-tags="i" horiz-adv-x="455" d="M440.23 46.507l-14.308-58.487c-42.923-16.942-77.21-29.838-102.742-38.702-25.559-8.892-55.258-13.318-89.095-13.318-51.963 0-92.381 12.732-121.207 38.013-28.826 25.384-43.244 57.554-43.244 96.575 0 15.104 1.046 30.646 3.221 46.478 2.194 15.849 5.681 33.695 10.453 53.652l53.643 189.861c4.772 18.182 8.829 35.408 12.078 51.698 3.294 16.189 4.882 31.084 4.882 44.493 0 24.247-5.020 41.207-15.014 50.742-9.994 9.508-29.066 14.335-57.378 14.335-13.867 0-28.12-2.221-42.648-6.516-14.592-4.313-27.064-8.48-37.536-12.353l14.344 58.534c35.141 14.308 68.731 26.56 100.861 36.729 32.131 10.196 62.49 15.299 91.207 15.299 51.605 0 91.426-12.472 119.39-37.416 27.964-24.963 41.941-57.323 41.941-97.199 0-8.251-0.918-22.788-2.891-43.566-1.927-20.824-5.516-39.904-10.747-57.258l-53.414-189.104c-4.378-15.189-8.315-32.552-11.738-52.093-3.533-19.41-5.222-34.241-5.222-44.186 0-25.111 5.598-42.257 16.822-51.371 11.307-9.114 30.781-13.648 58.443-13.648 12.986 0 27.762 2.304 44.18 6.832 16.373 4.523 28.313 8.499 35.719 11.975zM453.776 840.417c0-32.947-12.417-61.086-37.371-84.222-24.889-23.219-54.882-34.838-89.968-34.838-35.195 0-65.261 11.619-90.435 34.838-25.128 23.146-37.72 51.275-37.72 84.222 0 32.883 12.592 61.067 37.72 84.498 25.128 23.394 55.249 35.086 90.435 35.086 35.077 0 65.078-11.72 89.968-35.086 24.972-23.43 37.371-51.623 37.371-84.498z" />
<glyph unicode="&#xe932;" glyph-name="deo-filter" data-tags="Filter" horiz-adv-x="983" d="M166.953 761.043c5.491 11.572 17.352 18.977 30.4 18.977h588.333c13.046 0 24.908-7.404 30.401-18.977s3.613-25.209-4.813-34.95l-219.218-300.826v-267.837c0-11.358-6.013-21.905-15.892-27.877-9.88-5.968-22.217-6.513-32.604-1.434l-133.575 65.536c-11.355 5.55-18.527 16.896-18.527 29.311v202.301l-219.694 300.826c-8.425 9.741-10.302 23.378-4.81 34.95zM269.583 714.484l180.977-256.060c5.116-5.915 7.922-13.41 7.922-21.156v-194.052l66.552-32.768v226.82c0 7.746 2.806 15.241 7.922 21.156l180.503 256.060h-443.875z" />
<glyph unicode="&#xe933;" glyph-name="deo-arrow" data-tags="Icon" horiz-adv-x="1890" d="M1602.859 396.664h-1472.595c-81.686 0-81.686 114.872 0 114.872h1472.595l-339.054 282.541c-25.285 21.075-27.561 57.378-5.088 81.087 22.481 23.709 61.204 25.844 86.496 4.77l451.174-375.981c38.502-20.847 38.502-78.859 0-99.706l-451.174-375.984c-25.293-21.071-64.016-18.936-86.496 4.773-22.473 23.71-20.196 60.014 5.088 81.085l339.054 282.543z" />
<glyph unicode="&#xe934;" glyph-name="deo-location" data-tags="Location" horiz-adv-x="983" d="M292.902 552.687c0 109.712 88.939 198.651 198.651 198.651s198.652-88.939 198.652-198.651c0-96.282-49.553-196.048-104.514-274.245-27.103-38.568-54.628-70.619-76.067-92.799-6.84-7.078-12.931-13.013-18.072-17.756-5.14 4.743-11.231 10.678-18.072 17.756-21.438 22.18-48.964 54.231-76.068 92.799-54.959 78.197-104.511 177.963-104.511 274.245zM491.553 820.97c-148.168 0-268.283-120.114-268.283-268.283 0-117.729 59.326-231.975 117.174-314.284 29.297-41.689 59.157-76.517 82.968-101.151 11.87-12.28 22.557-22.36 31.195-29.622 4.248-3.572 8.54-6.922 12.579-9.581 1.978-1.307 4.551-2.879 7.467-4.256l0.012-0.004c1.843-0.872 8.356-3.94 16.888-3.94s15.045 3.068 16.888 3.94l0.012 0.004c2.916 1.376 5.489 2.949 7.467 4.256 4.039 2.658 8.331 6.009 12.579 9.581 8.638 7.262 19.325 17.342 31.195 29.622 23.81 24.633 53.67 59.462 82.969 101.151 57.848 82.309 117.174 196.555 117.174 314.284 0 148.168-120.115 268.283-268.284 268.283zM425.001 533.221c0 36.76 29.798 66.559 66.556 66.559 36.762 0 66.56-29.799 66.56-66.559 0-36.758-29.798-66.556-66.56-66.556-36.758 0-66.556 29.798-66.556 66.556zM491.557 661.22c-70.689 0-127.997-57.307-127.997-127.999 0-70.689 57.308-127.996 127.997-127.996 70.693 0 128 57.307 128 127.996 0 70.692-57.307 127.999-128 127.999z" />
<glyph unicode="&#xe935;" glyph-name="deo-contact" data-tags="Contact" horiz-adv-x="983" d="M227.136 780.020h461.917c49.181 0 89.194-39.671 89.194-88.434v-478.491c0-48.763-40.014-88.433-89.194-88.433h-461.917c-14.993 0-27.146 12.046-27.146 26.915v601.529c0 14.865 12.154 26.915 27.146 26.915zM578.748 726.19h-324.465v-547.699h324.465c19.247 0 34.902 15.52 34.902 34.603v478.491c0 19.081-15.655 34.605-34.902 34.605zM689.054 178.491c19.247 0 34.902 15.52 34.902 34.603v478.491c0 19.081-15.655 34.605-34.902 34.605-26.272 0-28.234 0.036-28.238-0.052 0-0.014 0.045-0.031 0.057-0.052 0.93-2.173 1.749-3.903 2.47-5.673 7-17.201 4.6-38.226 4.6-507.32 0-11.71-2.47-23.798-7.115-34.603h28.226zM450.523 587.28c64.827 0 103.014-72.835 66.879-126.054 40.624-23.278 68.051-67.072 68.051-117.154 0-14.717-11.932-26.644-26.649-26.644-14.713 0-26.644 11.928-26.644 26.644 0 45.015-36.622 81.633-81.633 81.633-45.012 0-81.633-36.618-81.633-81.633 0-14.717-11.93-26.644-26.647-26.644s-26.647 11.928-26.647 26.644c0 50.078 27.426 93.872 68.045 117.15-36.131 53.211 2.034 126.058 66.878 126.058zM478.015 506.495c0 15.155-12.333 27.492-27.492 27.492s-27.492-12.337-27.492-27.492c0-15.159 12.333-27.496 27.492-27.496s27.492 12.337 27.492 27.496z" />
<glyph unicode="&#xe936;" glyph-name="deo-copy" data-tags="Copy" horiz-adv-x="970" d="M444.632 528.842c-22.324 0-40.421-18.097-40.421-40.421v-363.789c0-22.323 18.097-40.421 40.421-40.421h363.789c22.323 0 40.421 18.098 40.421 40.421v363.789c0 22.324-18.098 40.421-40.421 40.421h-363.789zM323.368 488.421c0 66.972 54.291 121.263 121.263 121.263h363.789c66.97 0 121.263-54.291 121.263-121.263v-363.789c0-66.97-54.294-121.263-121.263-121.263h-363.789c-66.972 0-121.263 54.294-121.263 121.263v363.789zM161.684 811.789c-10.72 0-21.002-4.259-28.582-11.839s-11.839-17.862-11.839-28.582v-363.789c0-10.72 4.259-21.003 11.839-28.58 7.58-7.583 17.862-11.841 28.582-11.841h40.421c22.324 0 40.421-18.098 40.421-40.421s-18.097-40.421-40.421-40.421h-40.421c-32.161 0-63.005 12.778-85.746 35.517-22.741 22.744-35.517 53.588-35.517 85.747v363.789c0 32.161 12.776 63.005 35.517 85.746s53.585 35.517 85.746 35.517h363.789c32.159 0 63.003-12.776 85.747-35.517 22.738-22.741 35.517-53.585 35.517-85.746v-40.421c0-22.324-18.098-40.421-40.421-40.421s-40.421 18.097-40.421 40.421v40.421c0 10.72-4.258 21.002-11.841 28.582-7.578 7.58-17.86 11.839-28.58 11.839h-363.789z" />
<glyph unicode="&#xe937;" glyph-name="deo-custumer-service" data-tags="Customer Service" horiz-adv-x="983" d="M475.005 776.93c-119.089 0-217.66-87.845-234.45-202.271-62.039-2.741-111.495-53.906-111.495-116.62v-26.35c0-64.471 52.263-116.732 116.734-116.736h27.053c9.234 0 18.090 3.67 24.619 10.199s10.197 15.385 10.197 24.617v190.19c0 92.418 74.921 167.339 167.341 167.339h31.379c93.88 0 169.984-76.104 169.984-169.985v-184.701c0-48.636-39.428-88.064-88.064-88.064h-62.325c-2.392 0-4.723-0.242-6.975-0.7h-41.226c-31.646 0-57.299-25.653-57.299-57.299 0-31.65 25.653-57.303 57.299-57.303h46.219c27.66 0 50.745 19.599 56.119 45.67h8.188c73.875 0 135.881 50.794 153.006 119.362 62.603 2.126 112.701 53.547 112.701 116.666v29.7c0 62.657-49.365 113.785-111.325 116.613-19.014 113.324-117.576 199.673-236.302 199.673h-31.379zM746 506.941v-122.294c21.848 4.096 38.38 23.265 38.38 46.297v29.7c0 23.032-16.531 42.205-38.38 46.297zM198.692 458.039c0 23.372 17.019 42.766 39.34 46.465v-119.28c-22.321 3.699-39.34 23.097-39.34 46.465v26.35zM607.609 480.137c0-24.666-19.993-44.663-44.663-44.663-24.666 0-44.663 19.997-44.663 44.663s19.997 44.663 44.663 44.663c24.67 0 44.663-19.997 44.663-44.663zM464.724 480.129c0-24.666-19.997-44.663-44.663-44.663s-44.661 19.997-44.661 44.663 19.996 44.663 44.661 44.663c24.666 0 44.663-19.997 44.663-44.663z" />
<glyph unicode="&#xe938;" glyph-name="deo-disabled" data-tags="Disable" horiz-adv-x="983" d="M788.259 452.334c0 66.396-21.803 127.697-58.647 177.136l-415.228-415.228c49.438-36.844 110.74-58.647 177.136-58.647 163.885 0 296.739 132.854 296.739 296.739zM262.456 263.684l417.714 417.714c-51.278 42.281-116.998 67.676-188.649 67.676-163.885 0-296.74-132.855-296.74-296.74 0-71.651 25.395-137.372 67.676-188.649zM859.939 452.334c0-203.473-164.946-368.419-368.419-368.419s-368.42 164.946-368.42 368.419c0 203.472 164.948 368.42 368.42 368.42s368.419-164.948 368.419-368.42z" />
<glyph unicode="&#xe939;" glyph-name="deo-download" data-tags="Download" horiz-adv-x="983" d="M456.684 454.488v284.57c0 19.228 15.585 34.816 34.816 34.816 19.227 0 34.816-15.588 34.816-34.816v-284.586l63.451 63.451c13.599 13.599 35.643 13.599 49.238 0 13.599-13.595 13.599-35.639 0-49.234l-122.88-122.88c-13.595-13.599-35.639-13.599-49.238 0l-122.878 122.88c-13.596 13.595-13.596 35.639 0 49.234 13.597 13.599 35.641 13.599 49.237 0l63.438-63.435zM696.32 171.758c64.471 0 116.736 52.265 116.736 116.736v163.84c0 19.231-15.585 34.816-34.816 34.816-19.227 0-34.816-15.585-34.816-34.816v-163.84c0-26.014-21.086-47.104-47.104-47.104h-409.599c-26.015 0-47.104 21.090-47.104 47.104v163.84c0 19.231-15.588 34.816-34.816 34.816s-34.816-15.585-34.816-34.816v-163.84c0-64.471 52.265-116.736 116.736-116.736h409.599z" />
<glyph unicode="&#xe93a;" glyph-name="deo-eye-no" data-tags="Eye No" horiz-adv-x="983" d="M150.197 745.401c-13.33 13.33-13.33 34.942 0 48.272s34.942 13.33 48.272 0l119.193-119.193c5.134 3.521 10.287 6.912 15.458 10.17l49.838-49.838c-5.326-3.042-10.65-6.263-15.968-9.66l300.798-300.798c4.825 3.588 9.638 7.32 14.447 11.182l48.546-48.546c-4.727-3.908-9.47-7.705-14.23-11.395l116.314-116.318c13.328-13.328 13.328-34.943 0-48.271s-34.943-13.328-48.271 0l-125.825 125.825c-49.799-28.213-101.27-43.905-154.046-43.905-93.102 0-182.125 48.828-265.090 129.061-28.304 27.374-53.91 56.594-76.452 85.828-13.602 17.641-23.26 31.519-28.547 39.784l-11.762 18.391 11.762 18.391c5.288 8.27 14.945 22.147 28.547 39.784 22.542 29.236 48.148 58.457 76.452 85.829 7.91 7.65 15.876 15.014 23.895 22.078l-113.329 113.329zM287.088 560.921c8.241 7.97 16.52 15.563 24.83 22.759l61.976-61.977c-12.012-20.328-18.904-44.036-18.904-69.358 0-75.407 61.127-136.536 136.534-136.536 25.321 0 49.029 6.894 69.358 18.907l47.284-47.284c-34.656-17.052-69.329-26.243-103.444-26.243-71.852 0-146.177 40.767-217.633 109.871-25.744 24.895-49.209 51.675-69.847 78.438-4.457 5.784-8.576 11.297-12.342 16.49 3.766 5.194 7.885 10.711 12.342 16.49 20.639 26.767 44.103 53.547 69.847 78.44zM423.256 452.346c0 6.115 0.803 12.042 2.314 17.682l83.636-83.636c-5.64-1.511-11.567-2.314-17.682-2.314-37.704 0-68.268 30.564-68.268 68.268zM732.869 381.456l48.271-48.275c23.843 24.076 45.634 49.353 65.126 74.637 13.603 17.641 23.261 31.519 28.549 39.784l11.76 18.391-11.76 18.391c-5.288 8.266-14.946 22.143-28.549 39.784-22.54 29.234-48.148 58.456-76.452 85.828-82.964 80.231-171.987 129.063-265.089 129.063-36.622 0-72.614-7.556-107.855-21.608l53.997-53.998c18.051 4.83 36.033 7.339 53.858 7.339 71.852 0 146.178-40.768 217.633-109.87 25.743-24.896 49.209-51.672 69.849-78.439 4.456-5.779 8.573-11.297 12.341-16.49-3.768-5.194-7.885-10.711-12.341-16.49-17.797-23.081-37.691-46.166-59.339-68.047z" />
<glyph unicode="&#xe93b;" glyph-name="deo-eye-yes" data-tags="Eye Yes" horiz-adv-x="983" d="M491.52 725.407c93.102 0 182.125-48.832 265.089-129.063 28.303-27.371 53.912-56.593 76.452-85.826 13.603-17.641 23.261-31.519 28.549-39.784l11.76-18.391-11.76-18.391c-5.288-8.27-14.946-22.147-28.549-39.784-22.54-29.237-48.148-58.458-76.452-85.828-82.964-80.232-171.987-129.065-265.089-129.065-93.1 0-182.124 48.833-265.089 129.065-28.304 27.369-53.91 56.59-76.452 85.828-13.602 17.637-23.26 31.515-28.547 39.784l-11.762 18.391 11.762 18.391c5.288 8.266 14.945 22.143 28.547 39.784 22.542 29.233 48.148 58.455 76.452 85.826 82.965 80.232 171.989 129.063 265.089 129.063zM778.998 468.832c-20.636 26.763-44.102 53.543-69.845 78.438-71.459 69.101-145.781 109.869-217.633 109.869s-146.177-40.768-217.634-109.869c-25.743-24.895-49.208-51.675-69.847-78.438-4.458-5.784-8.576-11.297-12.342-16.49 3.766-5.198 7.884-10.711 12.342-16.49 20.639-26.767 44.103-53.547 69.847-78.442 71.457-69.1 145.782-109.867 217.634-109.867s146.174 40.767 217.633 109.867c25.743 24.895 49.209 51.675 69.845 78.442 4.456 5.779 8.577 11.293 12.341 16.49-3.764 5.194-7.885 10.707-12.341 16.49zM354.985 452.342c0-75.407 61.128-136.536 136.535-136.536 75.403 0 136.532 61.129 136.532 136.536 0 75.403-61.129 136.532-136.532 136.532-75.407 0-136.535-61.129-136.535-136.532zM559.784 452.342c0-37.704-30.564-68.268-68.268-68.268-37.7 0-68.264 30.564-68.264 68.268 0 37.7 30.564 68.264 68.264 68.264 37.704 0 68.268-30.564 68.268-68.264z" />
<glyph unicode="&#xe93c;" glyph-name="deo-bell-on" data-tags="bell" horiz-adv-x="983" d="M491.52 820.98c65.18 0 127.689-25.892 173.777-71.981 46.092-46.089 71.983-108.599 71.983-173.779v-204.798c0-29.012 7.692-57.225 21.95-81.92h-535.421c14.257 24.695 21.95 52.908 21.95 81.92v204.798c0 65.18 25.892 127.69 71.981 173.779s108.599 71.981 173.779 71.981zM901.12 288.502c-21.725 0-42.562 8.63-57.926 23.99-15.364 15.364-23.994 36.2-23.994 57.93v204.798c0 86.906-34.525 170.253-95.973 231.705-61.452 61.452-144.802 95.975-231.707 95.975-86.906 0-170.253-34.524-231.705-95.975s-95.975-144.799-95.975-231.705v-204.798c0-21.729-8.631-42.566-23.994-57.93-15.363-15.36-36.2-23.99-57.926-23.99-22.621 0-40.96-18.342-40.96-40.96 0-22.622 18.339-40.96 40.96-40.96h819.2v81.92zM400.107 119.132c-19.568-11.354-26.229-36.418-14.878-55.984 10.802-18.62 26.305-34.079 44.962-44.823 18.653-10.744 39.801-16.4 61.329-16.4s42.676 5.657 61.329 16.4c18.657 10.744 34.161 26.202 44.962 44.823 11.35 19.567 4.69 44.63-14.877 55.984-19.571 11.35-44.634 4.69-55.984-14.881-3.6-6.205-8.77-11.358-14.987-14.938-6.218-3.584-13.267-5.468-20.443-5.468s-14.225 1.884-20.443 5.468c-6.218 3.58-11.387 8.733-14.987 14.938-11.35 19.571-36.413 26.231-55.983 14.881z" />
<glyph unicode="&#xe93d;" glyph-name="deo-bell-off" data-tags="bell-off" horiz-adv-x="983" d="M11.997 931.863c15.996 15.996 41.93 15.996 57.926 0l901.12-901.119c15.995-15.999 15.995-41.931 0-57.93-15.995-15.995-41.931-15.995-57.926 0l-233.763 233.767h-597.434c-22.621 0-40.96 18.338-40.96 40.96 0 22.618 18.339 40.96 40.96 40.96 21.726 0 42.563 8.63 57.926 23.99 15.363 15.364 23.994 36.2 23.994 57.93v204.771c0 42.55 8.276 84.274 23.936 122.966l-175.779 175.779c-15.996 15.996-15.996 41.93 0 57.926zM252.704 633.23l344.73-344.728h-373.624c14.257 24.695 21.95 52.908 21.95 81.92v204.798c0 19.707 2.367 39.171 6.944 58.010zM493.371 821.12c-42.947 0.323-85.223-10.612-122.625-31.717-19.702-11.117-44.685-4.157-55.802 15.544s-4.157 44.685 15.544 55.802c49.869 28.139 106.239 42.719 163.497 42.288s113.406-15.859 162.845-44.746c49.439-28.887 90.448-70.224 118.936-119.894s43.463-105.938 43.434-163.198v-163.817c0-22.622-18.338-40.96-40.96-40.96s-40.96 18.338-40.96 40.96v163.838c0.020 42.945-11.211 85.167-32.575 122.419-21.369 37.253-52.122 68.256-89.203 89.921-37.077 21.665-79.188 33.236-122.13 33.559zM400.107 119.132c19.569 11.35 44.633 4.69 55.983-14.881 3.6-6.205 8.77-11.358 14.987-14.938 6.218-3.584 13.267-5.468 20.443-5.468s14.225 1.884 20.443 5.468c6.218 3.58 11.387 8.733 14.987 14.938 11.35 19.571 36.413 26.231 55.984 14.881 19.567-11.354 26.227-36.418 14.877-55.984-10.801-18.62-26.305-34.079-44.962-44.823-18.653-10.744-39.801-16.4-61.329-16.4s-42.676 5.657-61.329 16.4c-18.657 10.744-34.16 26.202-44.962 44.823-11.351 19.567-4.69 44.63 14.878 55.984z" />
<glyph unicode="&#xe93e;" glyph-name="deo-calendar" data-tags="Calendar" horiz-adv-x="983" d="M608.256 816.64c19.227 0 34.816-15.588 34.816-34.816v-53.244h53.244c64.471 0 116.736-52.265 116.736-116.736v-368.64c0-64.471-52.265-116.736-116.736-116.736h-409.6c-64.471 0-116.736 52.265-116.736 116.736v368.64c0 64.471 52.265 116.736 116.736 116.736h40.962v53.244c0 19.228 15.588 34.816 34.816 34.816s34.816-15.588 34.816-34.816v-53.244h176.13v53.244c0 19.228 15.585 34.816 34.816 34.816zM327.678 658.948v-12.292c0-19.228 15.588-34.816 34.816-34.816s34.816 15.588 34.816 34.816v12.292h176.13v-12.292c0-19.228 15.585-34.816 34.816-34.816 19.227 0 34.816 15.588 34.816 34.816v12.292h53.244c26.014 0 47.104-21.089 47.104-47.104v-40.962h-503.808v40.962c0 26.015 21.089 47.104 47.104 47.104h40.962zM239.612 501.248v-258.044c0-26.014 21.089-47.104 47.104-47.104h409.6c26.014 0 47.104 21.090 47.104 47.104v258.044h-503.808zM593.92 366.080c-11.309 0-20.48-9.171-20.48-20.48v-40.96c0-11.309 9.171-20.48 20.48-20.48h40.96c11.309 0 20.48 9.171 20.48 20.48v40.96c0 11.309-9.171 20.48-20.48 20.48h-40.96zM450.56 345.6c0 11.309 9.171 20.48 20.48 20.48h40.96c11.309 0 20.48-9.171 20.48-20.48v-40.96c0-11.309-9.171-20.48-20.48-20.48h-40.96c-11.309 0-20.48 9.171-20.48 20.48v40.96z" />
<glyph unicode="&#xe93f;" glyph-name="deo-check" data-tags="Check" horiz-adv-x="983" d="M776.266 727.063c15.995-15.996 15.995-41.93 0-57.926l-389.122-389.118c-7.847-7.848-18.542-12.177-29.638-11.993s-21.643 4.858-29.227 12.96l-153.381 163.84c-15.46 16.515-14.606 42.435 1.909 57.897 16.514 15.458 42.435 14.606 57.895-1.909l124.45-132.936 359.188 359.185c15.995 15.996 41.927 15.996 57.926 0z" />
<glyph unicode="&#xe940;" glyph-name="deo-circle-exclamation" data-tags="Circle Exclamation" horiz-adv-x="983" d="M531.202 330.101c0-22.27-18.055-40.321-40.321-40.321-22.27 0-40.321 18.051-40.321 40.321 0 22.266 18.051 40.321 40.321 40.321 22.266 0 40.321-18.055 40.321-40.321zM456.708 595.704v-143.358c0-19.231 15.589-34.816 34.816-34.816s34.816 15.585 34.816 34.816v143.358c0 19.229-15.589 34.816-34.816 34.816s-34.816-15.587-34.816-34.816zM169.98 452.346c0 177.578 143.957 321.534 321.536 321.534s321.536-143.956 321.536-321.534c0-177.582-143.958-321.536-321.536-321.536s-321.536 143.954-321.536 321.536zM491.516 704.248c-139.123 0-251.904-112.781-251.904-251.902 0-139.125 112.781-251.904 251.904-251.904 139.125 0 251.904 112.779 251.904 251.904 0 139.121-112.779 251.902-251.904 251.902z" />
<glyph unicode="&#xe941;" glyph-name="deo-circle-help" data-tags="Circle Help" horiz-adv-x="983" d="M522.879 313.463c0-22.27-18.051-40.321-40.317-40.321-22.27 0-40.321 18.051-40.321 40.321 0 22.266 18.051 40.321 40.321 40.321 22.266 0 40.317-18.055 40.317-40.321zM441.143 541.557c8.020 12.32 23.163 21.377 41.419 21.377 28.463 0 47.87-21.136 47.87-42.832 0-13.283-6.853-25.829-18.887-34.062-12.362-8.458-27.136-19.726-39.006-33.944-6.164-7.381-11.989-16.101-16.204-26.108-7.025-16.679 8.126-31.887 26.227-31.887h14.754c9.949 0 19.149 8.352 25.526 15.991 6.132 7.34 15.102 14.602 25.711 21.86 28.16 19.268 47.415 51.22 47.415 88.15 0 61.81-52.797 108.368-113.406 108.368-40.083 0-76.040-19.977-96.34-51.152-9.875-15.165-5.586-35.466 9.579-45.341 15.167-9.875 35.466-5.583 45.342 9.581zM169.98 452.346c0 177.578 143.957 321.534 321.536 321.534s321.536-143.956 321.536-321.534c0-177.582-143.958-321.536-321.536-321.536s-321.536 143.954-321.536 321.536zM491.516 704.248c-139.123 0-251.904-112.781-251.904-251.902 0-139.125 112.781-251.904 251.904-251.904 139.125 0 251.904 112.779 251.904 251.904 0 139.121-112.779 251.902-251.904 251.902z" />
<glyph unicode="&#xe942;" glyph-name="deo-circle-minus" data-tags="Circle Minus" horiz-adv-x="983" d="M614.404 417.522c19.227 0 34.816 15.585 34.816 34.816 0 19.227-15.589 34.816-34.816 34.816h-245.76c-19.228 0-34.816-15.589-34.816-34.816 0-19.231 15.588-34.816 34.816-34.816h245.76zM491.516 773.88c-177.579 0-321.536-143.956-321.536-321.534 0-177.582 143.957-321.536 321.536-321.536s321.536 143.954 321.536 321.536c0 177.578-143.958 321.534-321.536 321.534zM239.612 452.346c0 139.121 112.781 251.902 251.904 251.902 139.125 0 251.904-112.781 251.904-251.902 0-139.125-112.779-251.904-251.904-251.904-139.123 0-251.904 112.779-251.904 251.904z" />
<glyph unicode="&#xe943;" glyph-name="deo-circle-plus" data-tags="Circle Plus" horiz-adv-x="983" d="M491.524 610.036c19.231 0 34.816-15.588 34.816-34.816v-88.071h88.064c19.231 0 34.816-15.589 34.816-34.816 0-19.231-15.585-34.816-34.816-34.816h-88.064v-88.056c0-19.231-15.585-34.816-34.816-34.816-19.227 0-34.816 15.585-34.816 34.816v88.056h-88.062c-19.229 0-34.816 15.585-34.816 34.816 0 19.227 15.587 34.816 34.816 34.816h88.062v88.071c0 19.228 15.589 34.816 34.816 34.816zM491.516 773.876c-177.579 0-321.536-143.957-321.536-321.534 0-177.582 143.957-321.536 321.536-321.536s321.536 143.954 321.536 321.536c0 177.578-143.958 321.534-321.536 321.534zM239.612 452.342c0 139.121 112.781 251.902 251.904 251.902 139.125 0 251.904-112.781 251.904-251.902 0-139.125-112.779-251.904-251.904-251.904-139.123 0-251.904 112.779-251.904 251.904z" />
<glyph unicode="&#xe944;" glyph-name="deo-close" data-tags="Close" horiz-adv-x="983" d="M807.207 710.097c15.995 15.996 15.995 41.93 0 57.926s-41.931 15.996-57.926 0l-257.761-257.76-257.757 257.756c-15.996 15.996-41.93 15.996-57.926 0s-15.996-41.93 0-57.926l257.758-257.756-257.753-257.753c-15.996-15.999-15.996-41.931 0-57.926 15.996-15.999 41.93-15.999 57.926 0l257.753 257.749 257.757-257.753c15.995-15.999 41.931-15.999 57.926 0 15.995 15.995 15.995 41.927 0 57.926l-257.757 257.757 257.761 257.759z" />
<glyph unicode="&#xe945;" glyph-name="deo-attachment" data-tags="Attachment" horiz-adv-x="983" d="M670.679 696.059c-33.313 41.178-94.048 46.731-134.275 12.277l-241.212-206.592c-66.765-57.184-72.716-158.368-13.115-222.982 56.724-61.493 151.997-66.929 215.341-12.276l198.5 171.254c14.561 12.562 36.545 10.94 49.107-3.617 12.558-14.557 10.94-36.545-3.621-49.103l-198.5-171.258c-91.779-79.184-229.822-71.311-312.011 17.789-86.356 93.622-77.733 240.222 19.002 323.077l241.211 206.594c70.017 59.968 175.727 50.304 233.705-21.368 56.582-69.94 46.109-172.433-23.45-229.484l-234.062-191.971c-38.822-31.838-95.146-30.29-132.156 3.637-45.728 41.918-43.155 114.782 5.416 153.371l237.291 188.513c15.053 11.961 36.954 9.452 48.914-5.603s9.454-36.957-5.603-48.918l-237.288-188.514c-15.049-11.956-15.846-34.529-1.678-47.518 11.467-10.51 28.919-10.994 40.945-1.126l234.062 191.971c39.965 32.777 45.982 91.664 13.476 131.848z" />
<glyph unicode="&#xe946;" glyph-name="deo-sidebar" data-tags="Subtract-Deactive" d="M179.133 908.35h682.665c75.407 0 136.533-61.128 136.533-136.533v-682.667c0-75.407-61.126-136.533-136.533-136.533h-682.665c-75.405 0-136.533 61.126-136.533 136.533v682.667c0 75.405 61.128 136.533 136.533 136.533zM383.933 771.817c-37.702 0-68.267-30.564-68.267-68.267v-546.134c0-37.704 30.564-68.267 68.267-68.267s68.267 30.563 68.267 68.267v546.134c0 37.702-30.564 68.267-68.267 68.267z" />
<glyph unicode="&#xe947;" glyph-name="deo-time" data-tags="Time" d="M512 163.554c-157.094 0-284.445 127.351-284.445 284.446s127.35 284.445 284.445 284.445c157.094 0 284.446-127.35 284.446-284.445s-127.351-284.446-284.446-284.446zM512 106.667c188.514 0 341.333 152.819 341.333 341.333s-152.819 341.333-341.333 341.333c-188.513 0-341.333-152.82-341.333-341.333s152.82-341.333 341.333-341.333zM542.327 410.069c0 16.755-13.585 30.34-30.34 30.34s-30.34-13.585-30.34-30.34c0-16.755 13.585-30.34 30.34-30.34s30.34 13.585 30.34 30.34zM587.84 410.069c0-41.89-33.963-75.853-75.853-75.853s-75.853 33.963-75.853 75.853c0 40.593 31.889 73.741 71.983 75.755l53.606 125.085c6.191 14.439 22.912 21.128 37.35 14.939s21.129-22.91 14.942-37.349l-52.028-121.389c15.846-13.905 25.852-34.304 25.852-57.041zM419.535 328.546c22.628-25.634 55.643-41.737 92.452-41.737s69.824 16.102 92.45 41.737c10.398 11.78 28.373 12.898 40.149 2.505 11.78-10.398 12.898-28.369 2.505-40.149-32.969-37.35-81.293-60.979-135.104-60.979s-102.135 23.629-135.104 60.979c-10.395 11.78-9.275 29.751 2.503 40.149 11.778 10.394 29.753 9.276 40.148-2.505z" />
<glyph unicode="&#xe948;" glyph-name="deo-cart" data-tags="Priv Order-Deactive" d="M336.416 654.917h-105.347c-3.461 0-6.918-0.246-10.344-0.735-39.99-5.712-67.777-42.762-62.064-82.751l62.694-438.856c5.147-36.035 36.008-62.8 72.408-62.8h448.564c36.401 0 67.257 26.765 72.407 62.8l62.693 438.856c0.492 3.426 0.736 6.883 0.736 10.344 0 40.396-32.748 73.143-73.143 73.143h-105.345c-10.752 79.902-90.604 146.286-181.628 146.286-91.030 0-170.879-66.384-181.63-146.286zM625.123 654.917h-214.156c11.117 38.836 55.949 73.143 107.075 73.143 51.132 0 95.963-34.307 107.081-73.143zM231.069 581.774h104.118v-73.143h73.143v73.143h219.431v-73.143h73.143v73.143h104.116l-62.693-438.858h-448.564l-62.694 438.858z" />
<glyph unicode="&#xe949;" glyph-name="deo-box" data-tags="Product-Deactive" d="M501.809 788.582c5.047 2.502 10.606 3.804 16.243 3.804 5.632 0 11.191-1.302 16.238-3.804 0.015-0.005 0.024-0.011 0.034-0.016l292.572-146.285c6.095-3.028 11.22-7.695 14.809-13.477 3.584-5.782 5.486-12.45 5.491-19.254v-348.488c-0.005-6.802-1.907-13.473-5.491-19.251-3.589-5.783-8.714-10.45-14.809-13.478l-292.664-146.334c-5.081-2.54-10.684-3.867-16.364-3.867s-11.293 1.331-16.374 3.872l-292.502 146.252c0.010-0.005-0.010 0.005 0 0-6.074 3.067-11.171 7.768-14.72 13.575-3.554 5.817-5.411 12.507-5.364 19.324v348.402c0-0.002 0 0.002 0 0 0.005 6.802 1.907 13.467 5.491 19.247 3.586 5.782 8.713 10.45 14.807 13.477l292.571 146.286c0.010 0.005 0.024 0.011 0.034 0.016zM550.6 821.317l16.272 32.751c-15.17 7.539-31.881 11.461-48.82 11.461-16.945 0-33.654-3.923-48.825-11.461l-292.571-146.286c-0.015-0.008-0.030-0.015-0.045-0.022-18.259-9.084-33.625-23.078-44.374-40.41-10.757-17.347-16.462-37.351-16.472-57.762v-348.063c-0.116-20.402 5.457-40.428 16.095-57.836 10.662-17.447 25.988-31.568 44.249-40.77l0.101-0.049 292.561-146.281c15.243-7.626 32.055-11.6 49.097-11.6s33.846 3.969 49.089 11.596c0 0-0.005 0 0 0l292.489 146.247c0.015 0.005 0.024 0.010 0.039 0.015 18.261 9.084 33.631 23.079 44.378 40.414 10.757 17.349 16.462 37.352 16.477 57.763v348.546c-0.015 20.411-5.72 40.434-16.477 57.781-10.747 17.332-26.112 31.325-44.368 40.409-0.020 0.008-0.034 0.016-0.049 0.023l-292.489 146.245-16.355-32.71zM131.328 665.421c9.033 18.065 31 25.388 49.066 16.355l337.658-168.828 337.657 168.828c18.061 9.033 40.029 1.71 49.064-16.355 9.031-18.066 1.712-40.033-16.355-49.066l-354.011-177.006c-10.299-5.149-22.416-5.149-32.709 0l-354.014 177.006c-18.065 9.033-25.388 31-16.355 49.066zM518.051 508.632c20.197 0 36.571-16.374 36.571-36.572v-430.080c0-20.197-16.374-36.571-36.571-36.571-20.202 0-36.573 16.374-36.573 36.571v430.080c0 20.199 16.371 36.572 36.573 36.572zM302.482 762.701c9.033 18.065 31 25.388 49.066 16.355l365.716-182.857c18.066-9.033 25.385-31 16.355-49.066-9.036-18.066-31.003-25.388-49.064-16.355l-365.717 182.857c-18.065 9.033-25.388 31-16.355 49.066z" />
<glyph unicode="&#xe94a;" glyph-name="deo-purchase-box" data-tags="Purchases-Deactive" d="M269.362 823.145c6.907 9.209 17.746 14.629 29.257 14.629h438.856c11.513 0 22.352-5.42 29.257-14.629l109.714-146.286c4.749-6.33 7.314-14.030 7.314-21.943v-512c0-29.096-11.557-57.003-32.134-77.58-20.573-20.573-48.479-32.134-77.58-32.134h-511.999c-29.098 0-57.004 11.561-77.58 32.134-20.575 20.578-32.135 48.484-32.135 77.58v512c0 7.913 2.567 15.613 7.314 21.943l109.714 146.286zM316.905 764.631l-91.429-121.905v-499.81c0-9.699 3.853-19.003 10.712-25.858 6.859-6.861 16.161-10.713 25.86-10.713h511.999c9.699 0 19.003 3.852 25.863 10.713 6.856 6.856 10.708 16.16 10.708 25.858v499.81l-91.429 121.905h-402.285zM152.333 654.917c0 20.198 16.374 36.571 36.571 36.571h658.285c20.197 0 36.571-16.374 36.571-36.571s-16.374-36.571-36.571-36.571h-658.285c-20.198 0-36.571 16.373-36.571 36.571zM371.762 545.202c20.198 0 36.571-16.374 36.571-36.571 0-29.098 11.559-57.003 32.135-77.581 20.576-20.573 48.482-32.134 77.579-32.134 29.101 0 57.008 11.561 77.58 32.134 20.578 20.578 32.134 48.482 32.134 77.581 0 20.198 16.374 36.571 36.571 36.571s36.571-16.374 36.571-36.571c0-48.499-19.266-95.008-53.555-129.298-34.294-34.294-80.803-53.56-129.302-53.56-48.496 0-95.006 19.266-129.299 53.56-34.292 34.289-53.558 80.798-53.558 129.298 0 20.198 16.374 36.571 36.571 36.571z" />
<glyph unicode="&#xe94b;" glyph-name="deo-tag-sale" data-tags="Sales-Deactive" d="M157.653 448l354.347 354.347c18.985 18.986 44.739 29.653 71.588 29.653h211.169c55.916 0 101.243-45.327 101.243-101.242v-211.169c0-26.851-10.665-52.602-29.655-71.589l-354.345-354.345c-39.538-39.542-103.64-39.542-143.178 0l-211.169 211.169c-39.537 39.537-39.537 103.639 0 143.176zM275.896 458.859l-64.551-64.552c-9.885-9.882-9.885-25.907 0-35.794l211.169-211.169c9.885-9.882 25.91-9.882 35.794 0l64.551 64.553-246.964 246.963zM329.587 512.551l246.966-246.961 236.104 236.102c4.746 4.746 7.414 11.184 7.414 17.897v211.169c0 13.979-11.336 25.31-25.313 25.31h-211.169c-6.712 0-13.148-2.666-17.894-7.413l-236.106-236.104z" />
<glyph unicode="&#xe94c;" glyph-name="deo-storefront" data-tags="Storefront" horiz-adv-x="1109" d="M128 428.864c23.564 0 42.667-19.102 42.667-42.667v-364.864h768v364.855c0 23.565 19.102 42.667 42.667 42.667s42.667-19.102 42.667-42.667v-364.855c0-22.63-8.99-44.335-24.994-60.339s-37.709-24.994-60.339-24.994h-768c-22.632 0-44.337 8.99-60.34 24.994s-24.994 37.709-24.994 60.339v364.864c0 23.565 19.103 42.667 42.667 42.667zM108.797 942.792c14.804 11.167 32.844 17.208 51.387 17.208h788.966c18.543 0 36.582-6.041 51.388-17.208s25.57-26.853 30.665-44.683l76.489-267.721c3.678-12.873 1.101-26.726-6.959-37.415-8.064-10.688-20.676-16.973-34.065-16.973h-1024c-13.388 0-26.001 6.284-34.063 16.973s-10.64 24.542-6.962 37.415l76.492 267.721c5.094 17.83 15.858 33.516 30.663 44.683zM949.15 874.667h-788.966l-60.952-213.333h910.872l-60.954 213.333zM42.667 661.333c23.564 0 42.667-19.103 42.667-42.667v-85.333c0-33.946 13.486-66.505 37.49-90.509s56.562-37.491 90.51-37.491c33.948 0 66.505 13.487 90.51 37.491s37.49 56.563 37.49 90.509v85.333c0 23.564 19.103 42.667 42.667 42.667s42.667-19.103 42.667-42.667v-85.333c0-56.58-22.476-110.844-62.484-150.848-40.008-40.009-94.27-62.485-150.849-62.485s-110.842 22.477-150.849 62.485c-40.008 40.004-62.484 94.268-62.484 150.848v85.333c0 23.564 19.103 42.667 42.667 42.667zM384 661.333c23.564 0 42.667-19.103 42.667-42.667v-85.333c0-33.946 13.487-66.505 37.491-90.509s56.563-37.491 90.509-37.491c33.946 0 66.505 13.487 90.509 37.491s37.491 56.563 37.491 90.509v85.333c0 23.564 19.102 42.667 42.667 42.667s42.667-19.103 42.667-42.667v-85.333c0-56.58-22.477-110.844-62.485-150.848-40.004-40.009-94.268-62.485-150.848-62.485s-110.844 22.477-150.849 62.485c-40.008 40.004-62.484 94.268-62.484 150.848v85.333c0 23.564 19.103 42.667 42.667 42.667zM725.333 661.333c23.565 0 42.667-19.103 42.667-42.667v-85.333c0-33.946 13.487-66.505 37.491-90.509s56.563-37.491 90.509-37.491c33.946 0 66.505 13.487 90.509 37.491s37.491 56.563 37.491 90.509v85.333c0 23.564 19.102 42.667 42.667 42.667s42.667-19.103 42.667-42.667v-85.333c0-56.58-22.477-110.844-62.485-150.848-40.004-40.009-94.268-62.485-150.848-62.485s-110.844 22.477-150.848 62.485c-40.009 40.004-62.485 94.268-62.485 150.848v85.333c0 23.564 19.102 42.667 42.667 42.667z" />
<glyph unicode="&#xe94d;" glyph-name="deo-receipt" data-tags="Receipt" d="M272 544c0 17.674 14.327 32 32 32h416c17.674 0 32-14.326 32-32s-14.326-32-32-32h-416c-17.673 0-32 14.326-32 32zM272 416c0 17.674 14.327 32 32 32h416c17.674 0 32-14.326 32-32s-14.326-32-32-32h-416c-17.673 0-32 14.326-32 32zM114.745 781.255c12.002 12.003 28.281 18.745 45.255 18.745h704c16.973 0 33.251-6.743 45.254-18.745s18.746-28.281 18.746-45.255v-608c0-11.091-5.744-21.389-15.178-27.222-9.434-5.83-21.213-6.358-31.133-1.398l-113.69 56.845-113.69-56.845c-9.008-4.506-19.613-4.506-28.621 0l-113.69 56.845-113.69-56.845c-9.008-4.506-19.613-4.506-28.621 0l-113.69 56.845-113.689-56.845c-9.919-4.96-21.7-4.432-31.134 1.398-9.434 5.834-15.177 16.131-15.177 27.222v608c0 16.974 6.743 33.252 18.745 45.255zM864 736h-704v-556.224l81.689 40.845c9.009 4.506 19.613 4.506 28.621 0l113.689-56.845 113.69 56.845c9.008 4.506 19.613 4.506 28.621 0l113.69-56.845 113.69 56.845c9.008 4.506 19.613 4.506 28.621 0l81.69-40.845v556.224z" />
<glyph unicode="&#xe94e;" glyph-name="deo-users" data-tags="Users" d="M352 704c-97.202 0-176-78.797-176-176s78.798-176 176-176c97.203 0 176 78.797 176 176s-78.797 176-176 176zM112 528c0 132.548 107.452 240 240 240s240-107.452 240-240c0-132.547-107.453-240-240-240s-240 107.453-240 240zM704.784 702.007c-24.861 3.818-50.25 2.264-74.458-4.556-17.011-4.793-34.685 5.112-39.478 22.123s5.11 34.686 22.122 39.479c33.011 9.3 67.629 11.419 101.526 6.213s66.288-17.615 94.986-36.392c28.698-18.777 53.037-43.486 71.382-72.462 18.342-28.978 30.266-61.547 34.963-95.518 4.694-33.971 2.058-68.557-7.738-101.421-9.795-32.867-26.518-63.254-49.046-89.114-22.528-25.856-50.333-46.589-81.549-60.794-31.213-14.208-65.107-21.562-99.405-21.565-17.67-0.003-32 14.323-32.003 31.997 0 17.67 14.323 32 31.997 32.003 25.152 0.003 50.010 5.395 72.899 15.814s43.283 25.622 59.805 44.586c16.518 18.963 28.784 41.248 35.968 65.35s9.117 49.466 5.674 74.378c-3.443 24.912-12.189 48.8-25.642 70.051-13.453 21.249-31.302 39.369-52.349 53.14-21.043 13.77-44.797 22.871-69.654 26.688zM351.99 288c-51.349-0.003-101.945-12.358-147.516-36.029-45.571-23.667-84.777-57.955-114.31-99.962-10.164-14.458-30.124-17.939-44.582-7.776-14.458 10.166-17.938 30.125-7.774 44.582 35.438 50.41 82.484 91.552 137.166 119.952 54.682 28.403 115.396 43.229 177.015 43.232 61.616 0.003 122.333-14.822 177.014-43.219 54.685-28.397 101.734-69.536 137.178-119.939 10.166-14.458 6.685-34.419-7.773-44.582-14.454-10.166-34.416-6.688-44.582 7.77-29.536 42.006-68.742 76.288-114.317 99.955-45.571 23.664-96.17 36.019-147.52 36.016zM825.635 252.035c-45.568 23.667-96.17 36.003-147.517 35.965-17.674-0.013-32.013 14.304-32.026 31.978s14.304 32.010 31.978 32.022c61.632 0.045 122.365-14.762 177.062-43.168 54.694-28.403 101.741-69.568 137.152-120.010 10.154-14.464 6.662-34.422-7.802-44.576-14.467-10.157-34.422-6.662-44.579 7.802-29.504 42.026-68.701 76.323-114.269 99.987z" />
<glyph unicode="&#xe94f;" glyph-name="deo-circle-four" data-tags="CirclesFour" d="M304 768c-61.856 0-112-50.144-112-112s50.144-112 112-112c61.856 0 112 50.144 112 112s-50.144 112-112 112zM128 656c0 97.202 78.798 176 176 176s176-78.798 176-176c0-97.203-78.797-176-176-176s-176 78.797-176 176zM720 768c-61.856 0-112-50.144-112-112s50.144-112 112-112c61.856 0 112 50.144 112 112s-50.144 112-112 112zM544 656c0 97.202 78.797 176 176 176s176-78.798 176-176c0-97.203-78.797-176-176-176s-176 78.797-176 176zM304 352c-61.856 0-112-50.144-112-112s50.144-112 112-112c61.856 0 112 50.144 112 112s-50.144 112-112 112zM128 240c0 97.203 78.798 176 176 176s176-78.797 176-176c0-97.203-78.797-176-176-176s-176 78.797-176 176zM720 352c-61.856 0-112-50.144-112-112s50.144-112 112-112c61.856 0 112 50.144 112 112s-50.144 112-112 112zM544 240c0 97.203 78.797 176 176 176s176-78.797 176-176c0-97.203-78.797-176-176-176s-176 78.797-176 176z" />
<glyph unicode="&#xe951;" glyph-name="deo-order-list" data-tags="Other List-Deactive" d="M408.184 801.202h-36.422c-40.395 0-73.143-32.747-73.143-73.143h-36.571c-40.395 0-73.143-32.747-73.143-73.143v-548.572c0-40.394 32.748-73.143 73.143-73.143h511.999c40.399 0 73.143 32.748 73.143 73.143v548.572c0 40.396-32.744 73.143-73.143 73.143h-36.571c0 40.396-32.744 73.143-73.143 73.143h-36.42c-27.511 23.297-67.408 36.571-109.865 36.571-42.453 0-82.351-13.274-109.863-36.571zM664.332 618.345c27.073 0 50.712 14.709 63.361 36.571h46.353v-548.572h-511.999v548.572h46.357c12.646-21.862 36.284-36.571 63.357-36.571h292.57zM371.762 289.202h219.428v73.143h-219.428v-73.143zM371.762 508.631h292.57v-73.143h-292.57v73.143zM439.698 728.060l10.936 12.603c12.015 13.847 37.77 23.968 67.413 23.968 29.647 0 55.398-10.121 67.413-23.968l10.937-12.603h67.935v-36.571h-292.57v36.571h67.936z" />
<glyph unicode="&#xe953;" glyph-name="deo-package" data-tags="Package" d="M516.128 479.997c17.67-0.182 31.85-14.656 31.667-32.326l-4.246-411.242c-0.182-17.674-14.656-31.85-32.33-31.667-17.67 0.182-31.85 14.656-31.667 32.326l4.246 411.242c0.182 17.674 14.656 31.85 32.33 31.667zM480.058 882.958c9.606 5.43 20.458 8.284 31.491 8.284 11.037 0 21.885-2.854 31.491-8.284l336-189.913c9.869-5.577 18.077-13.674 23.789-23.463s8.72-20.92 8.72-32.254v-378.656c0-11.334-3.008-22.464-8.72-32.253-5.712-9.792-13.92-17.888-23.789-23.466l-336-189.91c-9.606-5.43-20.454-8.285-31.491-8.285-11.034 0-21.882 2.854-31.491 8.285l-335.999 189.91c-9.867 5.578-18.076 13.674-23.787 23.466-5.712 9.789-8.721 20.918-8.721 32.253v378.656c0 11.335 3.010 22.465 8.721 32.254s13.92 17.886 23.787 23.463v0l335.999 189.913zM511.549 827.242l-335.999-189.914v-378.656l335.999-189.914 336 189.914v378.656l-336 189.914zM120.025 669.146c8.621 15.428 28.116 20.947 43.544 12.326l352.044-196.714 343.67 196.514c15.341 8.773 34.89 3.447 43.664-11.895 8.771-15.342 3.446-34.891-11.894-43.662l-359.373-205.494c-9.744-5.571-21.696-5.629-31.494-0.154l-367.835 205.536c-15.428 8.621-20.946 28.115-12.326 43.543zM309.037 780.932c8.62 15.428 28.115 20.946 43.542 12.326l371.117-207.369c10.122-5.654 16.39-16.339 16.39-27.933v-192c0-17.674-14.326-32-32-32-17.67 0-32 14.326-32 32v173.222l-354.723 198.21c-15.429 8.621-20.947 28.116-12.326 43.544z" />
<glyph unicode="&#xe95f;" glyph-name="deo-box-only" data-tags="Package-only" d="M584.061 818.621l235.069-116.102c38.429-18.981 62.759-58.13 62.759-100.993v-281.239c0-42.865-24.326-82.014-62.759-100.995l-235.069-116.101c-31.441-15.532-68.321-15.532-99.762 0l-235.071 116.101c-38.431 18.981-62.758 58.13-62.758 100.995v281.239c0 42.863 24.328 82.012 62.759 100.993l235.070 116.102c31.441 15.529 68.321 15.529 99.762 0zM511.504 763.534l-66.38-32.787 242.754-123.699 92.156 46.256-223.183 110.231c-14.291 7.059-31.052 7.059-45.347 0zM619.708 572.829l-243.304 123.977-90.277-44.588 186.699-93.35c37.544-18.771 81.74-18.736 119.251 0.093l27.632 13.869zM247.922 602.628c-0.008-0.367-0.012-0.734-0.012-1.102v-281.239c0-19.485 11.058-37.278 28.527-45.908l226.044-111.645v322.945c-19.64 3.052-38.92 9.13-57.131 18.235l-197.428 98.713zM563.921 485.949v-324.182l228 112.611c17.469 8.63 28.529 26.423 28.529 45.908v281.239c0 1.094-0.037 2.183-0.106 3.266l-200.704-100.742c-17.768-8.917-36.561-14.95-55.718-18.1z" />
<glyph unicode="&#xe963;" glyph-name="deo-purse" data-tags="Expenses-Deactive" d="M644.237 823.048c38.844 11.098 79.326-11.393 90.424-50.235 1.868-6.535 2.814-13.298 2.814-20.094v-61.231h73.143c40.399 0 73.143-32.747 73.143-73.143v-438.858c0-40.394-32.744-73.143-73.143-73.143h-585.142c-40.395 0-73.143 32.748-73.143 73.143h0.977c-0.649 3.935-0.977 7.919-0.977 11.913v435.931c0 32.657 21.649 61.357 53.049 70.328l438.855 125.388zM450.027 179.488h360.591v292.571h-73.143v-155.273c0-32.656-21.645-61.357-53.048-70.324l-234.4-66.974zM737.475 618.346h73.143v-73.143h-73.143v73.143zM225.476 627.333v-435.932l438.856 125.391v435.929l-438.856-125.388zM591.189 545.203c0-20.198-16.374-36.571-36.571-36.571s-36.571 16.374-36.571 36.571c0 20.198 16.374 36.571 36.571 36.571s36.571-16.373 36.571-36.571z" />
<glyph unicode="&#xe964;" glyph-name="deo-share-1" data-tags="Integration-Deactive" d="M737.475 764.631c-40.394 0-73.143-32.747-73.143-73.143s32.748-73.143 73.143-73.143c40.399 0 73.143 32.747 73.143 73.143s-32.744 73.143-73.143 73.143zM591.189 691.488c0 80.791 65.497 146.286 146.286 146.286 80.794 0 146.286-65.495 146.286-146.286s-65.492-146.286-146.286-146.286c-80.789 0-146.286 65.494-146.286 146.286zM298.619 508.631c-40.395 0-73.143-32.747-73.143-73.143 0-40.394 32.748-73.143 73.143-73.143s73.143 32.748 73.143 73.143c0 40.396-32.747 73.143-73.143 73.143zM152.333 435.488c0 80.792 65.495 146.286 146.286 146.286s146.286-65.495 146.286-146.286c0-80.789-65.494-146.286-146.286-146.286s-146.286 65.497-146.286 146.286zM737.475 252.631c-40.394 0-73.143-32.748-73.143-73.143s32.748-73.143 73.143-73.143c40.399 0 73.143 32.748 73.143 73.143s-32.744 73.143-73.143 73.143zM591.189 179.488c0 80.794 65.497 146.286 146.286 146.286 80.794 0 146.286-65.492 146.286-146.286 0-80.789-65.492-146.286-146.286-146.286-80.789 0-146.286 65.497-146.286 146.286zM376.608 385.731c10.169 17.452 32.56 23.357 50.011 13.185l219.428-128c17.452-10.167 23.357-32.558 13.185-50.010-10.167-17.452-32.558-23.357-50.010-13.185l-219.428 128c-17.451 10.167-23.355 32.558-13.185 50.010zM659.202 650.079c10.177-17.445 4.291-39.839-13.156-50.019l-219.133-136.314c-17.445-10.181-39.839-4.291-50.019 13.152-10.181 17.445-4.292 39.839 13.153 50.019l219.135 136.315c17.442 10.18 39.838 4.292 50.020-13.154z" />
<glyph unicode="&#xe970;" glyph-name="deo-delivery" data-tags="Delivery" d="M225.56 491.008c-20.129 0-39.216 4.469-56.32 12.468v2.892h-5.814c-42.217 22.323-70.986 66.683-70.986 117.762 0 73.52 59.6 133.12 133.12 133.12s133.12-59.6 133.12-133.12c0-73.52-59.6-133.122-133.12-133.122zM41.24 624.13c0-61.671 30.287-116.267 76.8-149.727v-90.915h-15.36c-14.139 0-25.6-11.461-25.6-25.6 0-14.135 11.461-25.6 25.6-25.6h15.36v-30.72h-35.84c-14.139 0-25.6-11.461-25.6-25.6 0-14.135 11.461-25.6 25.6-25.6h35.84v-56.32c0-36.758 29.8-66.56 66.56-66.56h65.519c10.75-32.702 41.538-56.32 77.841-56.32s67.090 23.618 77.84 56.32h253.918c10.752-32.702 41.538-56.32 77.84-56.32s67.092 23.618 77.84 56.32h45.040c36.762 0 66.56 29.802 66.56 66.56v146.629c0 17.891-7.201 35.029-19.98 47.546l-101.2 99.135c-12.44 12.186-29.164 19.010-46.58 19.010h-103.6c-5.284 0-10.428-0.614-15.36-1.778v99.060c0 36.76-29.798 66.56-66.56 66.56h-169.645c-20.462 79.498-92.627 138.24-178.513 138.24-101.797 0-184.32-82.523-184.32-184.32zM169.24 383.488v65.085c17.752-5.689 36.677-8.765 56.32-8.765 100.085 0 181.538 79.774 184.249 179.202h163.91c8.483 0 15.36-6.877 15.36-15.36v-424.962h-183.278c-10.75 32.707-41.538 56.32-77.84 56.32s-67.091-23.613-77.841-56.32h-65.519c-8.483 0-15.36 6.877-15.36 15.36v56.32h35.84c14.138 0 25.6 11.465 25.6 25.6 0 14.139-11.462 25.6-25.6 25.6h-35.84v30.72h71.68c14.138 0 25.6 11.465 25.6 25.6 0 14.139-11.462 25.6-25.6 25.6h-71.68zM659.718 178.688h-19.44v261.12c0 8.487 6.877 15.36 15.36 15.36h103.6c4.022 0 7.881-1.573 10.752-4.387l101.2-99.131c2.949-2.892 4.608-6.844 4.608-10.973v-146.629c0-8.483-6.877-15.36-15.36-15.36h-45.040c-10.748 32.707-41.538 56.32-77.84 56.32s-67.088-23.613-77.84-56.32zM768.279 153.088c0-16.966-13.754-30.72-30.72-30.72s-30.72 13.754-30.72 30.72c0 16.97 13.754 30.72 30.72 30.72s30.72-13.75 30.72-30.72zM327.96 122.368c-16.966 0-30.72 13.754-30.72 30.72 0 16.97 13.754 30.72 30.72 30.72s30.72-13.75 30.72-30.72c0-16.966-13.754-30.72-30.72-30.72zM327.96 250.368c14.138 0 25.6 11.465 25.6 25.6 0 14.139-11.462 25.6-25.6 25.6h-40.96c-14.139 0-25.6-11.461-25.6-25.6 0-14.135 11.461-25.6 25.6-25.6h40.96zM225.56 685.57c0 11.311-9.169 20.48-20.48 20.48s-20.48-9.169-20.48-20.48v-61.442c0-5.432 2.157-10.641 5.998-14.481l40.96-40.96c7.998-7.998 20.965-7.998 28.963 0s7.998 20.965 0 28.963l-34.961 34.962v52.959z" />
<glyph unicode="&#xe97a;" glyph-name="deo-cart-bascket" data-tags="Dashboard-Deactive-cart" d="M400.69 819.806l-118.187-204.706h-88.603c-49.485 0-89.6-40.115-89.6-89.6v-25.6c0-42.036 28.947-77.31 67.996-86.977l37.13-229.78c11.021-68.209 69.905-118.339 138.997-118.339h327.167c69.094 0 127.985 50.135 138.998 118.349l37.115 229.765c39.060 9.656 68.019 44.939 68.019 86.982v25.6c0 49.485-40.12 89.6-89.6 89.6h-88.622l-118.185 204.706c-10.609 18.366-34.089 24.659-52.46 14.055-18.365-10.604-24.658-34.089-14.054-52.455l96.015-166.306h-281.631l96.017 166.306c10.604 18.366 4.311 41.851-14.055 52.455s-41.851 4.311-52.455-14.055zM817.874 487.1h-305.864c-21.209 0-38.401-17.192-38.401-38.4 0-21.206 17.192-38.398 38.401-38.398h261.473l-34.714-214.907c-5.007-31.002-31.775-53.791-63.181-53.791h-327.167c-31.405 0-58.17 22.784-63.18 53.791l-34.726 214.907h63.564c21.208 0 38.4 17.193 38.4 38.398 0 21.208-17.192 38.4-38.4 38.4h-107.956c-0.442 0.008-0.885 0.008-1.329 0h-10.895c-7.069 0-12.8 5.731-12.8 12.8v25.6c0 7.069 5.731 12.8 12.8 12.8h636.221c7.066 0 12.8-5.731 12.8-12.8v-25.6c0-7.069-5.734-12.8-12.8-12.8h-10.921c-0.445 0.008-0.886 0.008-1.326 0zM409.6 339.948c-21.208 0-38.4-17.188-38.4-38.4v-61.44c0-21.207 17.192-38.4 38.4-38.4s38.4 17.193 38.4 38.4v61.44c0 21.212-17.192 38.4-38.4 38.4zM614.4 339.948c-21.207 0-38.4-17.188-38.4-38.4v-61.44c0-21.207 17.193-38.4 38.4-38.4s38.4 17.193 38.4 38.4v61.44c0 21.212-17.193 38.4-38.4 38.4z" />
<glyph unicode="&#xe982;" glyph-name="deo-cart-bascket-1" data-tags="bascket" d="M204.52 557.561h81.911c0.011-15.013 8.308-29.464 22.651-36.636 20.233-10.117 44.837-1.917 54.954 18.317l9.159 18.319h318.009l9.159-18.319c10.117-20.234 34.722-28.434 54.956-18.317 14.34 7.172 22.639 21.623 22.651 36.636h81.912v-81.921h-655.362v81.921zM741.835 639.481l-91.079 182.158c-10.117 20.233-34.722 28.435-54.956 18.318-20.23-10.117-28.434-34.721-18.317-54.954l72.761-145.522h-236.089l72.761 145.522c10.117 20.233 1.917 44.837-18.317 54.954s-44.839 1.915-54.956-18.318l-91.077-182.158h-118.045c-45.243 0-81.92-36.677-81.92-81.92v-81.921c0-34.398 21.204-63.848 51.255-75.985-0.56-7.758-0.016-15.725 1.758-23.704l63.715-286.72c8.329-37.482 41.574-64.152 79.969-64.152h425.806c38.396 0 71.639 26.669 79.97 64.152l63.713 286.72c1.298 5.833 1.95 11.792 1.95 17.768 0 1.995-0.070 3.969-0.209 5.927 30.061 12.132 51.274 41.587 51.274 75.993v81.921c0 45.243-36.68 81.92-81.92 81.92h-118.047zM255.581 393.72h553.235l-63.713-286.72h-425.806l-63.716 286.72z" />
<glyph unicode="&#xe983;" glyph-name="deo-bunker" data-tags="Cash Bank-Deactive" d="M817.269 801.202h-598.442c-36.724 0-66.494-32.747-66.494-73.143v-585.143c0-40.394 29.77-73.143 66.494-73.143h43.221v-36.571h73.143v36.571h365.713v-36.571h73.143v36.571h43.223c36.723 0 66.492 32.748 66.492 73.143v585.143c0 40.396-29.769 73.143-66.492 73.143zM225.476 142.916v585.143h585.142v-73.143h-36.571v-73.143h36.571v-292.572h-36.571v-73.143h36.571v-73.143h-585.142zM726.762 278.489l-51.717-51.717-82.686 82.686c-21.777-12.868-47.182-20.256-74.313-20.256-27.126 0-52.533 7.387-74.312 20.256l-82.686-82.686-51.72 51.717 82.686 82.686c-12.869 21.782-20.254 47.187-20.254 74.313 0 27.131 7.385 52.533 20.254 74.312l-82.686 82.686 51.72 51.72 82.686-82.686c21.779 12.869 47.185 20.254 74.311 20.254 27.131 0 52.536-7.385 74.313-20.254l82.686 82.685 51.717-51.72-82.681-82.685c12.868-21.779 20.251-47.182 20.251-74.313s-7.383-52.531-20.251-74.313l82.681-82.686zM591.189 435.488c0-40.394-32.744-73.143-73.143-73.143-40.394 0-73.142 32.748-73.142 73.143 0 40.396 32.748 73.143 73.142 73.143 40.399 0 73.143-32.747 73.143-73.143z" />
<glyph unicode="&#xe984;" glyph-name="contacts-Deactive" data-tags="contacts-Deactive" d="M242.462 308.79c34.292 34.289 80.803 53.555 129.3 53.555h292.57c48.499 0 95.008-19.266 129.302-53.555 34.289-34.294 53.555-80.803 53.555-129.302v-73.143c0-20.197-16.374-36.571-36.571-36.571s-36.571 16.374-36.571 36.571v73.143c0 29.096-11.557 57.003-32.134 77.58-20.573 20.578-48.479 32.134-77.58 32.134h-292.57c-29.098 0-57.004-11.557-77.58-32.134s-32.135-48.484-32.135-77.58v-73.143c0-20.197-16.373-36.571-36.571-36.571s-36.571 16.374-36.571 36.571v73.143c0 48.499 19.265 95.008 53.558 129.302zM518.046 728.060c-60.593 0-109.713-49.121-109.713-109.714s49.121-109.714 109.713-109.714c60.596 0 109.714 49.121 109.714 109.714s-49.118 109.714-109.714 109.714zM335.19 618.345c0 100.989 81.868 182.857 182.856 182.857 100.991 0 182.857-81.868 182.857-182.857s-81.866-182.858-182.857-182.858c-100.988 0-182.856 81.868-182.856 182.858z" />
</font>
</defs>
</svg>
