<svg width="125" height="33" viewBox="0 0 125 33" fill="none" xmlns="http://www.w3.org/2000/svg">
<path fill-rule="evenodd" clip-rule="evenodd" d="M50.9672 28.5183C47.1233 28.5183 43.9834 25.2701 43.9834 21.2369C43.9834 17.2037 47.1233 13.9014 50.9672 13.9014C54.08 13.9014 56.5161 15.7422 57.4634 18.5572H55.0003C54.215 17.0413 52.7805 16.0939 50.9672 16.0939C48.3958 16.0939 46.2845 18.4216 46.2845 21.2369C46.2845 24.0522 48.3958 26.3257 50.9672 26.3257C52.8076 26.3257 54.2423 25.3781 55.0003 23.8626H57.4634C56.5431 26.6775 54.08 28.5183 50.9672 28.5183Z" fill="#07467E"/>
<path fill-rule="evenodd" clip-rule="evenodd" d="M58.7041 8.05469H60.9781V23.0238C60.9781 25.4867 62.4938 26.1094 64.2257 26.0279V28.1936C60.951 28.5724 58.7041 26.6504 58.7041 23.1048V8.05469Z" fill="#07467E"/>
<path fill-rule="evenodd" clip-rule="evenodd" d="M75.8031 21.2645C75.8031 18.4219 73.6911 16.0944 71.0926 16.0944C68.521 16.0944 66.4097 18.4219 66.4097 21.2645C66.4097 24.0527 68.521 26.3262 71.0926 26.3262C73.6911 26.3262 75.8031 24.0527 75.8031 21.2645ZM78.1035 21.264C78.1035 25.2701 75.0721 28.5454 71.0927 28.5454C67.141 28.5454 64.082 25.2701 64.082 21.264C64.082 17.2037 67.141 13.9014 71.0927 13.9014C75.0721 13.9014 78.1035 17.2037 78.1035 21.264Z" fill="#07467E"/>
<path fill-rule="evenodd" clip-rule="evenodd" d="M85.9099 16.0127C83.3118 16.0127 81.2005 18.2867 81.2005 21.1827C81.2005 24.1332 83.3118 26.4067 85.9099 26.4067C88.4548 26.4067 90.6199 24.079 90.6199 21.1827C90.6199 18.3135 88.4819 16.0127 85.9099 16.0127ZM92.8939 21.183C92.8939 25.3242 89.8624 28.5185 85.9098 28.5185C82.0393 28.5185 78.8994 25.3781 78.8994 21.183C78.8994 17.0144 82.0123 13.9016 85.8561 13.9016C87.805 13.9016 89.5371 14.8221 90.674 16.2568V8.05469H92.8939V21.183Z" fill="#07467E"/>
<path fill-rule="evenodd" clip-rule="evenodd" d="M96.4291 22.157L105.037 18.53C104.171 17.0141 102.628 16.0669 101.058 16.0669C98.8387 16.0669 96.3483 18.0158 96.3483 21.2099C96.3483 21.5616 96.3754 21.8592 96.4291 22.157ZM107.825 23.8624C106.742 26.8399 104.414 28.5181 101.193 28.5181C97.1868 28.5181 94.0469 25.324 94.0469 21.2369C94.0469 17.2035 97.1868 13.9014 101.058 13.9014C104.089 13.9014 107.039 16.0127 107.852 19.6398L97.1597 24.16C98.053 25.5679 99.5962 26.3526 101.193 26.3526C103.169 26.3526 104.549 25.4864 105.443 23.8624H107.825Z" fill="#07467E"/>
<path fill-rule="evenodd" clip-rule="evenodd" d="M120.326 21.2645C120.326 18.4219 118.214 16.0944 115.616 16.0944C113.044 16.0944 110.933 18.4219 110.933 21.2645C110.933 24.0527 113.044 26.3262 115.616 26.3262C118.214 26.3262 120.326 24.0527 120.326 21.2645ZM122.626 21.264C122.626 25.2701 119.595 28.5454 115.616 28.5454C111.663 28.5454 108.604 25.2701 108.604 21.264C108.604 17.2037 111.663 13.9014 115.616 13.9014C119.595 13.9014 122.626 17.2037 122.626 21.264Z" fill="#07467E"/>
<path fill-rule="evenodd" clip-rule="evenodd" d="M5.9719 20.8081C6.04839 22.6169 6.98051 24.2061 8.36794 25.1771C9.22356 25.7839 10.2552 26.1483 11.3757 26.1924L13.0352 26.1939L13.9574 26.1924L19.2068 26.1907V29.6783L11.4866 29.68C11.3906 29.68 11.2945 29.6765 11.1972 29.675C11.0992 29.6716 11.0051 29.6682 10.9071 29.6602C10.8454 29.6587 10.7807 29.6538 10.7169 29.6456C10.6587 29.6424 10.603 29.6359 10.5478 29.6325C10.5349 29.6293 10.5235 29.6293 10.5122 29.6263C10.4404 29.6196 10.369 29.6097 10.3007 29.6C10.2014 29.5869 10.102 29.5725 10.0031 29.556C9.92813 29.5446 9.85486 29.5302 9.78352 29.5171C9.69091 29.4976 9.59959 29.4797 9.50827 29.4569C9.31488 29.4148 9.12279 29.3641 8.93413 29.3074C8.85763 29.2829 8.78307 29.2584 8.70658 29.2341C8.61848 29.2064 8.53253 29.1755 8.44444 29.143C8.35999 29.1138 8.27383 29.0811 8.18917 29.047C8.10322 29.0143 8.02157 28.9771 7.9354 28.9412C7.68507 28.8325 7.44248 28.7118 7.20333 28.5785C7.12361 28.5362 7.04561 28.4889 6.96568 28.4451C6.85029 28.377 6.73684 28.3037 6.62253 28.2287H6.62124C6.50908 28.1555 6.39648 28.076 6.28754 27.9977C6.21427 27.9442 6.14293 27.892 6.07117 27.8351C5.92828 27.7244 5.7899 27.6105 5.65345 27.4937C5.58512 27.4316 5.5198 27.3716 5.45341 27.3129C5.44804 27.3063 5.44352 27.3031 5.43858 27.3001C5.3782 27.2412 5.31653 27.1845 5.25658 27.1245C5.19298 27.0609 5.1311 26.999 5.06793 26.9341C5.03183 26.898 4.99938 26.8609 4.96522 26.825C4.94373 26.8022 4.92439 26.7777 4.90162 26.7534C4.88722 26.7356 4.87067 26.7193 4.85778 26.7014C4.75228 26.5828 4.65107 26.4638 4.55546 26.3419C4.54213 26.3239 4.52731 26.3095 4.51613 26.2964C4.47703 26.2461 4.43814 26.1939 4.39903 26.1432C4.36959 26.1028 4.33736 26.0589 4.30792 26.0179C4.22649 25.9075 4.1472 25.7919 4.06877 25.6765C4.06726 25.67 4.06533 25.6683 4.06404 25.6638C4.05931 25.6621 4.05931 25.6569 4.05738 25.6554C4.00216 25.5725 3.94994 25.4861 3.89472 25.3984C3.78729 25.2194 3.68651 25.0372 3.58917 24.8503C3.5563 24.7882 3.5275 24.73 3.49936 24.6664C3.46841 24.6079 3.44091 24.5527 3.4147 24.4923C3.39235 24.4453 3.3728 24.3965 3.35002 24.346C3.31263 24.2583 3.27503 24.1687 3.24086 24.0793C3.22647 24.0501 3.21508 24.0174 3.20176 23.9865C3.15943 23.8756 3.12247 23.7637 3.08293 23.6498C3.03931 23.5228 2.99827 23.3943 2.96132 23.2643C2.92371 23.1339 2.88804 23.0041 2.85861 22.8705C2.83433 22.7714 2.81155 22.6721 2.7935 22.5746C2.76256 22.4313 2.73634 22.2866 2.71701 22.1418C2.71701 22.1304 2.71228 22.1257 2.71077 22.1158C2.69595 22.0118 2.68456 21.9091 2.67188 21.8036C2.66028 21.6992 2.6519 21.5986 2.64373 21.4961C2.64094 21.4751 2.64094 21.4585 2.6375 21.4424C2.63084 21.3431 2.62762 21.2439 2.62289 21.1446C2.61945 21.0324 2.61816 20.9201 2.61816 20.8081C2.61816 20.6989 2.61945 20.5851 2.62289 20.4744C2.62762 20.3751 2.63084 20.2759 2.6375 20.1768C2.64094 20.1607 2.64094 20.1396 2.64373 20.1231C2.6519 20.0208 2.66028 19.9198 2.67188 19.8156C2.68456 19.7101 2.69595 19.6076 2.71077 19.5034C2.71228 19.4935 2.71701 19.4838 2.71701 19.4774C2.73634 19.3326 2.76256 19.188 2.7935 19.0446C2.81155 18.9473 2.83433 18.8478 2.85861 18.7486C2.88804 18.6151 2.92371 18.4851 2.96132 18.3549C2.99827 18.2234 3.03931 18.0964 3.08293 17.9694C3.12247 17.8558 3.15943 17.7434 3.20176 17.6327C3.20842 17.6181 3.21508 17.6052 3.22131 17.5904C3.24258 17.5319 3.26686 17.4748 3.29115 17.4181C3.30919 17.3691 3.33068 17.3205 3.35002 17.2735C3.35475 17.2634 3.35819 17.2554 3.36291 17.2472C3.3743 17.2197 3.38719 17.1901 3.39858 17.1626C3.40524 17.1497 3.4119 17.1381 3.4147 17.1269C3.42802 17.0992 3.44091 17.0747 3.45423 17.0487C3.5303 16.8845 3.61195 16.7234 3.6979 16.5622C3.71079 16.5377 3.72562 16.5119 3.73701 16.4874C3.83778 16.3102 3.94522 16.1361 4.05738 15.9636C4.05931 15.9556 4.06533 15.9492 4.06877 15.9427C4.07393 15.9376 4.08016 15.9314 4.08338 15.923C4.2151 15.7244 4.35541 15.5295 4.50174 15.3441C4.50646 15.3377 4.51119 15.3293 4.51613 15.3228C4.52129 15.3179 4.52731 15.3097 4.53268 15.3033C4.63668 15.1731 4.74218 15.0478 4.85112 14.9242L4.85778 14.9178C4.87067 14.8985 4.88528 14.8819 4.90162 14.8656C4.92439 14.8413 4.94373 14.817 4.96522 14.794C4.99938 14.7584 5.03183 14.7225 5.06793 14.6849C5.1296 14.6202 5.19148 14.5583 5.25658 14.4949C5.31653 14.4346 5.3782 14.3776 5.43858 14.319C5.44352 14.3142 5.44804 14.3078 5.45341 14.3063C5.5198 14.2461 5.58512 14.1872 5.65345 14.1256C5.7899 14.0082 5.92828 13.8946 6.07117 13.7841C6.14293 13.727 6.21427 13.675 6.28754 13.6213C6.39648 13.5433 6.50908 13.4633 6.62124 13.3888H6.62253C6.73684 13.3138 6.85029 13.2424 6.96568 13.1739C7.04561 13.1303 7.12361 13.083 7.20333 13.0407C7.44248 12.9072 7.68507 12.7867 7.9354 12.6778C8.02157 12.6421 8.10322 12.6045 8.18917 12.5723C8.27383 12.5381 8.35999 12.5054 8.44444 12.4745C8.53253 12.4435 8.61848 12.4128 8.70658 12.3834C8.78307 12.3608 8.85763 12.3361 8.93413 12.3116C9.12279 12.2549 9.31488 12.2046 9.50827 12.1606C9.59959 12.1395 9.69091 12.1217 9.78352 12.1021C9.85486 12.089 9.92813 12.0746 10.0031 12.0613C10.102 12.0469 10.2014 12.0321 10.3007 12.019C10.369 12.0095 10.4404 11.9994 10.5122 11.9932C10.5235 11.9899 10.5349 11.9899 10.5478 11.9865C10.603 11.9833 10.6587 11.9766 10.7169 11.9736C10.7807 11.9655 10.8424 11.9605 10.9071 11.959C11.0051 11.9506 11.0992 11.9457 11.1972 11.9444C11.2945 11.941 11.3906 11.9395 11.4866 11.9395H19.2068V15.4253L11.3757 15.4271C10.2552 15.4707 9.22356 15.8353 8.36794 16.4421C6.98051 17.4131 6.04839 19.0023 5.9719 20.8081Z" fill="#07467E"/>
<path fill-rule="evenodd" clip-rule="evenodd" d="M37.9629 20.1097C37.9629 20.0856 37.9629 20.0592 37.9609 20.031C37.9609 19.9762 37.959 19.9172 37.9573 19.8645C37.953 19.7899 37.9487 19.715 37.941 19.64C37.9367 19.571 37.9343 19.5143 37.9287 19.4575C37.9205 19.3643 37.9107 19.2693 37.9001 19.178L37.886 19.0648C37.7362 17.9141 37.3778 16.8183 36.8369 15.8238C35.9536 14.1932 34.5881 12.836 32.8869 11.9611L32.8689 11.9488C32.8223 11.9265 32.7819 11.9041 32.7348 11.8822C32.6802 11.8536 32.6218 11.8276 32.5672 11.801C32.5019 11.7726 32.4312 11.7382 32.3646 11.7077C32.3014 11.5234 32.2348 11.3412 32.1615 11.1587C32.0709 10.8371 31.9654 10.5208 31.8461 10.2109C31.2705 8.72422 30.3693 7.39953 29.227 6.32603C29.1761 6.2794 29.1234 6.23277 29.073 6.184C25.7063 3.18824 20.6609 2.58252 16.5998 5.02949C15.9172 5.44054 15.2992 5.91669 14.7483 6.4455C13.861 7.29016 13.146 8.27041 12.6133 9.33403H16.5732C16.7313 9.1415 16.8991 8.95714 17.0798 8.7788C18.3964 7.49257 20.215 6.71495 22.2005 6.71495C23.199 6.71495 24.1526 6.91542 25.02 7.27985C27.6125 8.36345 29.4458 10.8998 29.5066 13.8691C29.5407 14.0516 29.5693 14.2355 29.5936 14.4198L30.4015 14.6813C30.4157 14.6854 30.432 14.6893 30.4462 14.6975C30.5921 14.7441 30.732 14.7967 30.8717 14.8535L30.9426 14.8859C30.9909 14.9042 31.0438 14.9263 31.0964 14.9527C31.1351 14.9729 31.1692 14.9893 31.2058 15.0032L31.299 15.0539C31.7002 15.2609 32.0709 15.5099 32.4069 15.7935C33.521 16.7351 34.2583 18.0641 34.4488 19.5323L34.457 19.5991C34.465 19.6541 34.4688 19.715 34.477 19.7738L34.4832 19.8851C34.4873 19.9395 34.4892 19.9861 34.4935 20.0347C34.4974 20.0734 34.4974 20.1159 34.4974 20.1563C34.4974 20.1827 34.4993 20.2113 34.4993 20.2375V20.4015C34.4974 20.4561 34.4974 20.513 34.4935 20.5674V20.5977L34.4811 20.7743C34.4794 20.8009 34.477 20.8267 34.4731 20.8533L34.4609 20.9664C34.1936 23.3405 32.4838 25.3418 30.181 25.9817C30.1647 25.9836 30.1486 25.9879 30.1282 25.9899C30.1263 25.9942 30.1241 25.9942 30.122 25.9942C30.1121 25.9961 30.0996 25.9961 30.0897 25.998V26.0023L30.0917 26.0062V26.0084C29.6643 26.1338 29.2109 26.1985 28.7427 26.1985H27.5901H26.791H24.5804H21.9718V29.6786H26.791H28.7408C29.4761 29.6786 30.1909 29.5832 30.8717 29.3988C30.8798 29.3971 30.8835 29.3971 30.8921 29.3952C31.05 29.3505 31.2077 29.3058 31.3618 29.251C34.5054 28.2809 36.9096 25.7065 37.6896 22.5526C37.7927 22.1415 37.8679 21.7201 37.9126 21.2908L37.9162 21.2442V21.232L37.9244 21.1529C37.9343 21.0356 37.9487 20.918 37.953 20.7947V20.7784C37.9609 20.6144 37.9648 20.4625 37.9648 20.3063V20.1827C37.9648 20.1625 37.9629 20.1363 37.9629 20.1097Z" fill="#45A9FF"/>
</svg>
